<?xml version="1.0" encoding="utf-8" standalone="no"?>
<!DOCTYPE svg PUBLIC "-//W3C//DTD SVG 1.1//EN"
  "http://www.w3.org/Graphics/SVG/1.1/DTD/svg11.dtd">
<svg xmlns:xlink="http://www.w3.org/1999/xlink" width="401.1435pt" height="279.258135pt" viewBox="0 0 401.1435 279.258135" xmlns="http://www.w3.org/2000/svg" version="1.1">
 <metadata>
  <rdf:RDF xmlns:dc="http://purl.org/dc/elements/1.1/" xmlns:cc="http://creativecommons.org/ns#" xmlns:rdf="http://www.w3.org/1999/02/22-rdf-syntax-ns#">
   <cc:Work>
    <dc:type rdf:resource="http://purl.org/dc/dcmitype/StillImage"/>
    <dc:date>2026-05-26T11:40:55.325610</dc:date>
    <dc:format>image/svg+xml</dc:format>
    <dc:creator>
     <cc:Agent>
      <dc:title>Matplotlib v3.10.1, https://matplotlib.org/</dc:title>
     </cc:Agent>
    </dc:creator>
   </cc:Work>
  </rdf:RDF>
 </metadata>
 <defs>
  <style type="text/css">*{stroke-linejoin: round; stroke-linecap: butt}</style>
 </defs>
 <g id="figure_1">
  <g id="patch_1">
   <path d="M 0 279.258135 
L 401.1435 279.258135 
L 401.1435 0 
L 0 0 
z
" style="fill: #ffffff"/>
  </g>
  <g id="axes_1">
   <g id="patch_2">
    <path d="M -166.104 -59.058824 
L 175.671 -59.058824 
L 175.671 -259.501865 
L -166.104 -259.501865 
z
" style="fill: #ffffff"/>
   </g>
   <g id="patch_3">
    <path d="M -168.8165 -59.058824 
L -82.0165 -59.058824 
L -82.0165 -259.501865 
L -168.8165 -259.501865 
z
" clip-path="url(#pb287ad051e)" style="fill: #eaf2ff; opacity: 0.65; stroke: #eaf2ff; stroke-linejoin: miter"/>
   </g>
   <g id="patch_4">
    <path d="M -82.0165 -59.058824 
L 4.7835 -59.058824 
L 4.7835 -259.501865 
L -82.0165 -259.501865 
z
" clip-path="url(#pb287ad051e)" style="fill: #f2f4f6; opacity: 0.65; stroke: #f2f4f6; stroke-linejoin: miter"/>
   </g>
   <g id="patch_5">
    <path d="M 4.7835 -59.058824 
L 91.5835 -59.058824 
L 91.5835 -259.501865 
L 4.7835 -259.501865 
z
" clip-path="url(#pb287ad051e)" style="fill: #fff0e6; opacity: 0.65; stroke: #fff0e6; stroke-linejoin: miter"/>
   </g>
   <g id="patch_6">
    <path d="M 91.5835 -59.058824 
L 178.3835 -59.058824 
L 178.3835 -259.501865 
L 91.5835 -259.501865 
z
" clip-path="url(#pb287ad051e)" style="fill: #f2f4f6; opacity: 0.65; stroke: #f2f4f6; stroke-linejoin: miter"/>
   </g>
   <g id="line2d_1">
    <path clip-path="url(#pb287ad051e)" style="fill: none; stroke: #7c8794; stroke-opacity: 0.45; stroke-width: 0.7; stroke-linecap: square"/>
   </g>
   <g id="line2d_2">
    <path clip-path="url(#pb287ad051e)" style="fill: none; stroke: #7c8794; stroke-opacity: 0.45; stroke-width: 0.7; stroke-linecap: square"/>
   </g>
   <g id="line2d_3">
    <path clip-path="url(#pb287ad051e)" style="fill: none; stroke: #7c8794; stroke-opacity: 0.45; stroke-width: 0.7; stroke-linecap: square"/>
   </g>
   <g id="matplotlib.axis_1">
    <g id="xtick_1">
     <g id="line2d_4">
      <defs>
       <path id="m0ffe20cec8" d="M 0 0 
L 0 3.5 
" style="stroke: #000000; stroke-width: 0.8"/>
      </defs>
      <g/>
     </g>
     <g id="text_1">
      <!-- 10 -->
      <g transform="translate(-123.6415 -44.460386) scale(0.1 -0.1)">
       <defs>
        <path id="DejaVuSans-31" d="M 794 531 
L 1825 531 
L 1825 4091 
L 703 3866 
L 703 4441 
L 1819 4666 
L 2450 4666 
L 2450 531 
L 3481 531 
L 3481 0 
L 794 0 
L 794 531 
z
" transform="scale(0.015625)"/>
        <path id="DejaVuSans-30" d="M 2034 4250 
Q 1547 4250 1301 3770 
Q 1056 3291 1056 2328 
Q 1056 1369 1301 889 
Q 1547 409 2034 409 
Q 2525 409 2770 889 
Q 3016 1369 3016 2328 
Q 3016 3291 2770 3770 
Q 2525 4250 2034 4250 
z
M 2034 4750 
Q 2819 4750 3233 4129 
Q 3647 3509 3647 2328 
Q 3647 1150 3233 529 
Q 2819 -91 2034 -91 
Q 1250 -91 836 529 
Q 422 1150 422 2328 
Q 422 3509 836 4129 
Q 1250 4750 2034 4750 
z
" transform="scale(0.015625)"/>
       </defs>
       <use xlink:href="#DejaVuSans-31"/>
       <use xlink:href="#DejaVuSans-30" transform="translate(63.623047 0)"/>
      </g>
     </g>
    </g>
    <g id="xtick_2">
     <g id="line2d_5">
      <g/>
     </g>
     <g id="text_2">
      <!-- 20 -->
      <g transform="translate(-69.3915 -44.460386) scale(0.1 -0.1)">
       <defs>
        <path id="DejaVuSans-32" d="M 1228 531 
L 3431 531 
L 3431 0 
L 469 0 
L 469 531 
Q 828 903 1448 1529 
Q 2069 2156 2228 2338 
Q 2531 2678 2651 2914 
Q 2772 3150 2772 3378 
Q 2772 3750 2511 3984 
Q 2250 4219 1831 4219 
Q 1534 4219 1204 4116 
Q 875 4013 500 3803 
L 500 4441 
Q 881 4594 1212 4672 
Q 1544 4750 1819 4750 
Q 2544 4750 2975 4387 
Q 3406 4025 3406 3419 
Q 3406 3131 3298 2873 
Q 3191 2616 2906 2266 
Q 2828 2175 2409 1742 
Q 1991 1309 1228 531 
z
" transform="scale(0.015625)"/>
       </defs>
       <use xlink:href="#DejaVuSans-32"/>
       <use xlink:href="#DejaVuSans-30" transform="translate(63.623047 0)"/>
      </g>
     </g>
    </g>
    <g id="xtick_3">
     <g id="line2d_6">
      <g/>
     </g>
     <g id="text_3">
      <!-- 30 -->
      <g transform="translate(-15.1415 -44.460386) scale(0.1 -0.1)">
       <defs>
        <path id="DejaVuSans-33" d="M 2597 2516 
Q 3050 2419 3304 2112 
Q 3559 1806 3559 1356 
Q 3559 666 3084 287 
Q 2609 -91 1734 -91 
Q 1441 -91 1130 -33 
Q 819 25 488 141 
L 488 750 
Q 750 597 1062 519 
Q 1375 441 1716 441 
Q 2309 441 2620 675 
Q 2931 909 2931 1356 
Q 2931 1769 2642 2001 
Q 2353 2234 1838 2234 
L 1294 2234 
L 1294 2753 
L 1863 2753 
Q 2328 2753 2575 2939 
Q 2822 3125 2822 3475 
Q 2822 3834 2567 4026 
Q 2313 4219 1838 4219 
Q 1578 4219 1281 4162 
Q 984 4106 628 3988 
L 628 4550 
Q 988 4650 1302 4700 
Q 1616 4750 1894 4750 
Q 2613 4750 3031 4423 
Q 3450 4097 3450 3541 
Q 3450 3153 3228 2886 
Q 3006 2619 2597 2516 
z
" transform="scale(0.015625)"/>
       </defs>
       <use xlink:href="#DejaVuSans-33"/>
       <use xlink:href="#DejaVuSans-30" transform="translate(63.623047 0)"/>
      </g>
     </g>
    </g>
    <g id="xtick_4">
     <g id="line2d_7">
      <g/>
     </g>
     <g id="text_4">
      <!-- 40 -->
      <g transform="translate(39.1085 -44.460386) scale(0.1 -0.1)">
       <defs>
        <path id="DejaVuSans-34" d="M 2419 4116 
L 825 1625 
L 2419 1625 
L 2419 4116 
z
M 2253 4666 
L 3047 4666 
L 3047 1625 
L 3713 1625 
L 3713 1100 
L 3047 1100 
L 3047 0 
L 2419 0 
L 2419 1100 
L 313 1100 
L 313 1709 
L 2253 4666 
z
" transform="scale(0.015625)"/>
       </defs>
       <use xlink:href="#DejaVuSans-34"/>
       <use xlink:href="#DejaVuSans-30" transform="translate(63.623047 0)"/>
      </g>
     </g>
    </g>
    <g id="xtick_5">
     <g id="line2d_8">
      <g/>
     </g>
     <g id="text_5">
      <!-- 50 -->
      <g transform="translate(93.3585 -44.460386) scale(0.1 -0.1)">
       <defs>
        <path id="DejaVuSans-35" d="M 691 4666 
L 3169 4666 
L 3169 4134 
L 1269 4134 
L 1269 2991 
Q 1406 3038 1543 3061 
Q 1681 3084 1819 3084 
Q 2600 3084 3056 2656 
Q 3513 2228 3513 1497 
Q 3513 744 3044 326 
Q 2575 -91 1722 -91 
Q 1428 -91 1123 -41 
Q 819 9 494 109 
L 494 744 
Q 775 591 1075 516 
Q 1375 441 1709 441 
Q 2250 441 2565 725 
Q 2881 1009 2881 1497 
Q 2881 1984 2565 2268 
Q 2250 2553 1709 2553 
Q 1456 2553 1204 2497 
Q 953 2441 691 2322 
L 691 4666 
z
" transform="scale(0.015625)"/>
       </defs>
       <use xlink:href="#DejaVuSans-35"/>
       <use xlink:href="#DejaVuSans-30" transform="translate(63.623047 0)"/>
      </g>
     </g>
    </g>
    <g id="xtick_6">
     <g id="line2d_9">
      <g/>
     </g>
     <g id="text_6">
      <!-- 60 -->
      <g transform="translate(147.6085 -44.460386) scale(0.1 -0.1)">
       <defs>
        <path id="DejaVuSans-36" d="M 2113 2584 
Q 1688 2584 1439 2293 
Q 1191 2003 1191 1497 
Q 1191 994 1439 701 
Q 1688 409 2113 409 
Q 2538 409 2786 701 
Q 3034 994 3034 1497 
Q 3034 2003 2786 2293 
Q 2538 2584 2113 2584 
z
M 3366 4563 
L 3366 3988 
Q 3128 4100 2886 4159 
Q 2644 4219 2406 4219 
Q 1781 4219 1451 3797 
Q 1122 3375 1075 2522 
Q 1259 2794 1537 2939 
Q 1816 3084 2150 3084 
Q 2853 3084 3261 2657 
Q 3669 2231 3669 1497 
Q 3669 778 3244 343 
Q 2819 -91 2113 -91 
Q 1303 -91 875 529 
Q 447 1150 447 2328 
Q 447 3434 972 4092 
Q 1497 4750 2381 4750 
Q 2619 4750 2861 4703 
Q 3103 4656 3366 4563 
z
" transform="scale(0.015625)"/>
       </defs>
       <use xlink:href="#DejaVuSans-36"/>
       <use xlink:href="#DejaVuSans-30" transform="translate(63.623047 0)"/>
      </g>
     </g>
    </g>
    <g id="text_7">
     <!-- Encoded position -->
     <g transform="translate(-46.763062 -29.262574) scale(0.12 -0.12)">
      <defs>
       <path id="DejaVuSans-45" d="M 628 4666 
L 3578 4666 
L 3578 4134 
L 1259 4134 
L 1259 2753 
L 3481 2753 
L 3481 2222 
L 1259 2222 
L 1259 531 
L 3634 531 
L 3634 0 
L 628 0 
L 628 4666 
z
" transform="scale(0.015625)"/>
       <path id="DejaVuSans-6e" d="M 3513 2113 
L 3513 0 
L 2938 0 
L 2938 2094 
Q 2938 2591 2744 2837 
Q 2550 3084 2163 3084 
Q 1697 3084 1428 2787 
Q 1159 2491 1159 1978 
L 1159 0 
L 581 0 
L 581 3500 
L 1159 3500 
L 1159 2956 
Q 1366 3272 1645 3428 
Q 1925 3584 2291 3584 
Q 2894 3584 3203 3211 
Q 3513 2838 3513 2113 
z
" transform="scale(0.015625)"/>
       <path id="DejaVuSans-63" d="M 3122 3366 
L 3122 2828 
Q 2878 2963 2633 3030 
Q 2388 3097 2138 3097 
Q 1578 3097 1268 2742 
Q 959 2388 959 1747 
Q 959 1106 1268 751 
Q 1578 397 2138 397 
Q 2388 397 2633 464 
Q 2878 531 3122 666 
L 3122 134 
Q 2881 22 2623 -34 
Q 2366 -91 2075 -91 
Q 1284 -91 818 406 
Q 353 903 353 1747 
Q 353 2603 823 3093 
Q 1294 3584 2113 3584 
Q 2378 3584 2631 3529 
Q 2884 3475 3122 3366 
z
" transform="scale(0.015625)"/>
       <path id="DejaVuSans-6f" d="M 1959 3097 
Q 1497 3097 1228 2736 
Q 959 2375 959 1747 
Q 959 1119 1226 758 
Q 1494 397 1959 397 
Q 2419 397 2687 759 
Q 2956 1122 2956 1747 
Q 2956 2369 2687 2733 
Q 2419 3097 1959 3097 
z
M 1959 3584 
Q 2709 3584 3137 3096 
Q 3566 2609 3566 1747 
Q 3566 888 3137 398 
Q 2709 -91 1959 -91 
Q 1206 -91 779 398 
Q 353 888 353 1747 
Q 353 2609 779 3096 
Q 1206 3584 1959 3584 
z
" transform="scale(0.015625)"/>
       <path id="DejaVuSans-64" d="M 2906 2969 
L 2906 4863 
L 3481 4863 
L 3481 0 
L 2906 0 
L 2906 525 
Q 2725 213 2448 61 
Q 2172 -91 1784 -91 
Q 1150 -91 751 415 
Q 353 922 353 1747 
Q 353 2572 751 3078 
Q 1150 3584 1784 3584 
Q 2172 3584 2448 3432 
Q 2725 3281 2906 2969 
z
M 947 1747 
Q 947 1113 1208 752 
Q 1469 391 1925 391 
Q 2381 391 2643 752 
Q 2906 1113 2906 1747 
Q 2906 2381 2643 2742 
Q 2381 3103 1925 3103 
Q 1469 3103 1208 2742 
Q 947 2381 947 1747 
z
" transform="scale(0.015625)"/>
       <path id="DejaVuSans-65" d="M 3597 1894 
L 3597 1613 
L 953 1613 
Q 991 1019 1311 708 
Q 1631 397 2203 397 
Q 2534 397 2845 478 
Q 3156 559 3463 722 
L 3463 178 
Q 3153 47 2828 -22 
Q 2503 -91 2169 -91 
Q 1331 -91 842 396 
Q 353 884 353 1716 
Q 353 2575 817 3079 
Q 1281 3584 2069 3584 
Q 2775 3584 3186 3129 
Q 3597 2675 3597 1894 
z
M 3022 2063 
Q 3016 2534 2758 2815 
Q 2500 3097 2075 3097 
Q 1594 3097 1305 2825 
Q 1016 2553 972 2059 
L 3022 2063 
z
" transform="scale(0.015625)"/>
       <path id="DejaVuSans-20" transform="scale(0.015625)"/>
       <path id="DejaVuSans-70" d="M 1159 525 
L 1159 -1331 
L 581 -1331 
L 581 3500 
L 1159 3500 
L 1159 2969 
Q 1341 3281 1617 3432 
Q 1894 3584 2278 3584 
Q 2916 3584 3314 3078 
Q 3713 2572 3713 1747 
Q 3713 922 3314 415 
Q 2916 -91 2278 -91 
Q 1894 -91 1617 61 
Q 1341 213 1159 525 
z
M 3116 1747 
Q 3116 2381 2855 2742 
Q 2594 3103 2138 3103 
Q 1681 3103 1420 2742 
Q 1159 2381 1159 1747 
Q 1159 1113 1420 752 
Q 1681 391 2138 391 
Q 2594 391 2855 752 
Q 3116 1113 3116 1747 
z
" transform="scale(0.015625)"/>
       <path id="DejaVuSans-73" d="M 2834 3397 
L 2834 2853 
Q 2591 2978 2328 3040 
Q 2066 3103 1784 3103 
Q 1356 3103 1142 2972 
Q 928 2841 928 2578 
Q 928 2378 1081 2264 
Q 1234 2150 1697 2047 
L 1894 2003 
Q 2506 1872 2764 1633 
Q 3022 1394 3022 966 
Q 3022 478 2636 193 
Q 2250 -91 1575 -91 
Q 1294 -91 989 -36 
Q 684 19 347 128 
L 347 722 
Q 666 556 975 473 
Q 1284 391 1588 391 
Q 1994 391 2212 530 
Q 2431 669 2431 922 
Q 2431 1156 2273 1281 
Q 2116 1406 1581 1522 
L 1381 1569 
Q 847 1681 609 1914 
Q 372 2147 372 2553 
Q 372 3047 722 3315 
Q 1072 3584 1716 3584 
Q 2034 3584 2315 3537 
Q 2597 3491 2834 3397 
z
" transform="scale(0.015625)"/>
       <path id="DejaVuSans-69" d="M 603 3500 
L 1178 3500 
L 1178 0 
L 603 0 
L 603 3500 
z
M 603 4863 
L 1178 4863 
L 1178 4134 
L 603 4134 
L 603 4863 
z
" transform="scale(0.015625)"/>
       <path id="DejaVuSans-74" d="M 1172 4494 
L 1172 3500 
L 2356 3500 
L 2356 3053 
L 1172 3053 
L 1172 1153 
Q 1172 725 1289 603 
Q 1406 481 1766 481 
L 2356 481 
L 2356 0 
L 1766 0 
Q 1100 0 847 248 
Q 594 497 594 1153 
L 594 3053 
L 172 3053 
L 172 3500 
L 594 3500 
L 594 4494 
L 1172 4494 
z
" transform="scale(0.015625)"/>
      </defs>
      <use xlink:href="#DejaVuSans-45"/>
      <use xlink:href="#DejaVuSans-6e" transform="translate(63.183594 0)"/>
      <use xlink:href="#DejaVuSans-63" transform="translate(126.5625 0)"/>
      <use xlink:href="#DejaVuSans-6f" transform="translate(181.542969 0)"/>
      <use xlink:href="#DejaVuSans-64" transform="translate(242.724609 0)"/>
      <use xlink:href="#DejaVuSans-65" transform="translate(306.201172 0)"/>
      <use xlink:href="#DejaVuSans-64" transform="translate(367.724609 0)"/>
      <use xlink:href="#DejaVuSans-20" transform="translate(431.201172 0)"/>
      <use xlink:href="#DejaVuSans-70" transform="translate(462.988281 0)"/>
      <use xlink:href="#DejaVuSans-6f" transform="translate(526.464844 0)"/>
      <use xlink:href="#DejaVuSans-73" transform="translate(587.646484 0)"/>
      <use xlink:href="#DejaVuSans-69" transform="translate(639.746094 0)"/>
      <use xlink:href="#DejaVuSans-74" transform="translate(667.529297 0)"/>
      <use xlink:href="#DejaVuSans-69" transform="translate(706.738281 0)"/>
      <use xlink:href="#DejaVuSans-6f" transform="translate(734.521484 0)"/>
      <use xlink:href="#DejaVuSans-6e" transform="translate(795.703125 0)"/>
     </g>
    </g>
   </g>
   <g id="matplotlib.axis_2">
    <g id="ytick_1">
     <g id="line2d_10">
      <defs>
       <path id="m19bc501d31" d="M 0 0 
L -3.5 0 
" style="stroke: #000000; stroke-width: 0.8"/>
      </defs>
      <g/>
     </g>
     <g id="text_8">
      <!-- 0.0 -->
      <g transform="translate(-189.007125 -57.986721) scale(0.1 -0.1)">
       <defs>
        <path id="DejaVuSans-2e" d="M 684 794 
L 1344 794 
L 1344 0 
L 684 0 
L 684 794 
z
" transform="scale(0.015625)"/>
       </defs>
       <use xlink:href="#DejaVuSans-30"/>
       <use xlink:href="#DejaVuSans-2e" transform="translate(63.623047 0)"/>
       <use xlink:href="#DejaVuSans-30" transform="translate(95.410156 0)"/>
      </g>
     </g>
    </g>
    <g id="ytick_2">
     <g id="line2d_11">
      <g/>
     </g>
     <g id="text_9">
      <!-- 0.2 -->
      <g transform="translate(-189.007125 -85.257883) scale(0.1 -0.1)">
       <use xlink:href="#DejaVuSans-30"/>
       <use xlink:href="#DejaVuSans-2e" transform="translate(63.623047 0)"/>
       <use xlink:href="#DejaVuSans-32" transform="translate(95.410156 0)"/>
      </g>
     </g>
    </g>
    <g id="ytick_3">
     <g id="line2d_12">
      <g/>
     </g>
     <g id="text_10">
      <!-- 0.4 -->
      <g transform="translate(-189.007125 -112.529045) scale(0.1 -0.1)">
       <use xlink:href="#DejaVuSans-30"/>
       <use xlink:href="#DejaVuSans-2e" transform="translate(63.623047 0)"/>
       <use xlink:href="#DejaVuSans-34" transform="translate(95.410156 0)"/>
      </g>
     </g>
    </g>
    <g id="ytick_4">
     <g id="line2d_13">
      <g/>
     </g>
     <g id="text_11">
      <!-- 0.6 -->
      <g transform="translate(-189.007125 -139.800207) scale(0.1 -0.1)">
       <use xlink:href="#DejaVuSans-30"/>
       <use xlink:href="#DejaVuSans-2e" transform="translate(63.623047 0)"/>
       <use xlink:href="#DejaVuSans-36" transform="translate(95.410156 0)"/>
      </g>
     </g>
    </g>
    <g id="ytick_5">
     <g id="line2d_14">
      <g/>
     </g>
     <g id="text_12">
      <!-- 0.8 -->
      <g transform="translate(-189.007125 -167.071369) scale(0.1 -0.1)">
       <defs>
        <path id="DejaVuSans-38" d="M 2034 2216 
Q 1584 2216 1326 1975 
Q 1069 1734 1069 1313 
Q 1069 891 1326 650 
Q 1584 409 2034 409 
Q 2484 409 2743 651 
Q 3003 894 3003 1313 
Q 3003 1734 2745 1975 
Q 2488 2216 2034 2216 
z
M 1403 2484 
Q 997 2584 770 2862 
Q 544 3141 544 3541 
Q 544 4100 942 4425 
Q 1341 4750 2034 4750 
Q 2731 4750 3128 4425 
Q 3525 4100 3525 3541 
Q 3525 3141 3298 2862 
Q 3072 2584 2669 2484 
Q 3125 2378 3379 2068 
Q 3634 1759 3634 1313 
Q 3634 634 3220 271 
Q 2806 -91 2034 -91 
Q 1263 -91 848 271 
Q 434 634 434 1313 
Q 434 1759 690 2068 
Q 947 2378 1403 2484 
z
M 1172 3481 
Q 1172 3119 1398 2916 
Q 1625 2713 2034 2713 
Q 2441 2713 2670 2916 
Q 2900 3119 2900 3481 
Q 2900 3844 2670 4047 
Q 2441 4250 2034 4250 
Q 1625 4250 1398 4047 
Q 1172 3844 1172 3481 
z
" transform="scale(0.015625)"/>
       </defs>
       <use xlink:href="#DejaVuSans-30"/>
       <use xlink:href="#DejaVuSans-2e" transform="translate(63.623047 0)"/>
       <use xlink:href="#DejaVuSans-38" transform="translate(95.410156 0)"/>
      </g>
     </g>
    </g>
    <g id="ytick_6">
     <g id="line2d_15">
      <g/>
     </g>
     <g id="text_13">
      <!-- 1.0 -->
      <g transform="translate(-189.007125 -194.342532) scale(0.1 -0.1)">
       <use xlink:href="#DejaVuSans-31"/>
       <use xlink:href="#DejaVuSans-2e" transform="translate(63.623047 0)"/>
       <use xlink:href="#DejaVuSans-30" transform="translate(95.410156 0)"/>
      </g>
     </g>
    </g>
    <g id="ytick_7">
     <g id="line2d_16">
      <g/>
     </g>
     <g id="text_14">
      <!-- 1.2 -->
      <g transform="translate(-189.007125 -221.613694) scale(0.1 -0.1)">
       <use xlink:href="#DejaVuSans-31"/>
       <use xlink:href="#DejaVuSans-2e" transform="translate(63.623047 0)"/>
       <use xlink:href="#DejaVuSans-32" transform="translate(95.410156 0)"/>
      </g>
     </g>
    </g>
    <g id="ytick_8">
     <g id="line2d_17">
      <g/>
     </g>
     <g id="text_15">
      <!-- 1.4 -->
      <g transform="translate(-189.007125 -248.884856) scale(0.1 -0.1)">
       <use xlink:href="#DejaVuSans-31"/>
       <use xlink:href="#DejaVuSans-2e" transform="translate(63.623047 0)"/>
       <use xlink:href="#DejaVuSans-34" transform="translate(95.410156 0)"/>
      </g>
     </g>
    </g>
    <g id="text_16">
     <!-- Pre-recall item support -->
     <g transform="translate(-195.50275 -90.840969) rotate(-90) scale(0.12 -0.12)">
      <defs>
       <path id="DejaVuSans-50" d="M 1259 4147 
L 1259 2394 
L 2053 2394 
Q 2494 2394 2734 2622 
Q 2975 2850 2975 3272 
Q 2975 3691 2734 3919 
Q 2494 4147 2053 4147 
L 1259 4147 
z
M 628 4666 
L 2053 4666 
Q 2838 4666 3239 4311 
Q 3641 3956 3641 3272 
Q 3641 2581 3239 2228 
Q 2838 1875 2053 1875 
L 1259 1875 
L 1259 0 
L 628 0 
L 628 4666 
z
" transform="scale(0.015625)"/>
       <path id="DejaVuSans-72" d="M 2631 2963 
Q 2534 3019 2420 3045 
Q 2306 3072 2169 3072 
Q 1681 3072 1420 2755 
Q 1159 2438 1159 1844 
L 1159 0 
L 581 0 
L 581 3500 
L 1159 3500 
L 1159 2956 
Q 1341 3275 1631 3429 
Q 1922 3584 2338 3584 
Q 2397 3584 2469 3576 
Q 2541 3569 2628 3553 
L 2631 2963 
z
" transform="scale(0.015625)"/>
       <path id="DejaVuSans-2d" d="M 313 2009 
L 1997 2009 
L 1997 1497 
L 313 1497 
L 313 2009 
z
" transform="scale(0.015625)"/>
       <path id="DejaVuSans-61" d="M 2194 1759 
Q 1497 1759 1228 1600 
Q 959 1441 959 1056 
Q 959 750 1161 570 
Q 1363 391 1709 391 
Q 2188 391 2477 730 
Q 2766 1069 2766 1631 
L 2766 1759 
L 2194 1759 
z
M 3341 1997 
L 3341 0 
L 2766 0 
L 2766 531 
Q 2569 213 2275 61 
Q 1981 -91 1556 -91 
Q 1019 -91 701 211 
Q 384 513 384 1019 
Q 384 1609 779 1909 
Q 1175 2209 1959 2209 
L 2766 2209 
L 2766 2266 
Q 2766 2663 2505 2880 
Q 2244 3097 1772 3097 
Q 1472 3097 1187 3025 
Q 903 2953 641 2809 
L 641 3341 
Q 956 3463 1253 3523 
Q 1550 3584 1831 3584 
Q 2591 3584 2966 3190 
Q 3341 2797 3341 1997 
z
" transform="scale(0.015625)"/>
       <path id="DejaVuSans-6c" d="M 603 4863 
L 1178 4863 
L 1178 0 
L 603 0 
L 603 4863 
z
" transform="scale(0.015625)"/>
       <path id="DejaVuSans-6d" d="M 3328 2828 
Q 3544 3216 3844 3400 
Q 4144 3584 4550 3584 
Q 5097 3584 5394 3201 
Q 5691 2819 5691 2113 
L 5691 0 
L 5113 0 
L 5113 2094 
Q 5113 2597 4934 2840 
Q 4756 3084 4391 3084 
Q 3944 3084 3684 2787 
Q 3425 2491 3425 1978 
L 3425 0 
L 2847 0 
L 2847 2094 
Q 2847 2600 2669 2842 
Q 2491 3084 2119 3084 
Q 1678 3084 1418 2786 
Q 1159 2488 1159 1978 
L 1159 0 
L 581 0 
L 581 3500 
L 1159 3500 
L 1159 2956 
Q 1356 3278 1631 3431 
Q 1906 3584 2284 3584 
Q 2666 3584 2933 3390 
Q 3200 3197 3328 2828 
z
" transform="scale(0.015625)"/>
       <path id="DejaVuSans-75" d="M 544 1381 
L 544 3500 
L 1119 3500 
L 1119 1403 
Q 1119 906 1312 657 
Q 1506 409 1894 409 
Q 2359 409 2629 706 
Q 2900 1003 2900 1516 
L 2900 3500 
L 3475 3500 
L 3475 0 
L 2900 0 
L 2900 538 
Q 2691 219 2414 64 
Q 2138 -91 1772 -91 
Q 1169 -91 856 284 
Q 544 659 544 1381 
z
M 1991 3584 
L 1991 3584 
z
" transform="scale(0.015625)"/>
      </defs>
      <use xlink:href="#DejaVuSans-50"/>
      <use xlink:href="#DejaVuSans-72" transform="translate(58.552734 0)"/>
      <use xlink:href="#DejaVuSans-65" transform="translate(97.416016 0)"/>
      <use xlink:href="#DejaVuSans-2d" transform="translate(158.939453 0)"/>
      <use xlink:href="#DejaVuSans-72" transform="translate(195.023438 0)"/>
      <use xlink:href="#DejaVuSans-65" transform="translate(233.886719 0)"/>
      <use xlink:href="#DejaVuSans-63" transform="translate(295.410156 0)"/>
      <use xlink:href="#DejaVuSans-61" transform="translate(350.390625 0)"/>
      <use xlink:href="#DejaVuSans-6c" transform="translate(411.669922 0)"/>
      <use xlink:href="#DejaVuSans-6c" transform="translate(439.453125 0)"/>
      <use xlink:href="#DejaVuSans-20" transform="translate(467.236328 0)"/>
      <use xlink:href="#DejaVuSans-69" transform="translate(499.023438 0)"/>
      <use xlink:href="#DejaVuSans-74" transform="translate(526.806641 0)"/>
      <use xlink:href="#DejaVuSans-65" transform="translate(566.015625 0)"/>
      <use xlink:href="#DejaVuSans-6d" transform="translate(627.539062 0)"/>
      <use xlink:href="#DejaVuSans-20" transform="translate(724.951172 0)"/>
      <use xlink:href="#DejaVuSans-73" transform="translate(756.738281 0)"/>
      <use xlink:href="#DejaVuSans-75" transform="translate(808.837891 0)"/>
      <use xlink:href="#DejaVuSans-70" transform="translate(872.216797 0)"/>
      <use xlink:href="#DejaVuSans-70" transform="translate(935.693359 0)"/>
      <use xlink:href="#DejaVuSans-6f" transform="translate(999.169922 0)"/>
      <use xlink:href="#DejaVuSans-72" transform="translate(1060.351562 0)"/>
      <use xlink:href="#DejaVuSans-74" transform="translate(1101.464844 0)"/>
     </g>
    </g>
   </g>
   <g id="line2d_18">
    <path clip-path="url(#pb287ad051e)" style="fill: none; stroke: #178a4c; stroke-opacity: 0.85; stroke-width: 1.8; stroke-linecap: square"/>
   </g>
   <g id="line2d_19">
    <path clip-path="url(#pb287ad051e)" style="fill: none; stroke: #d7e8fa; stroke-width: 1.4; stroke-linecap: square"/>
   </g>
   <g id="line2d_20">
    <path clip-path="url(#pb287ad051e)" style="fill: none; stroke: #a6caec; stroke-width: 1.4; stroke-linecap: square"/>
   </g>
   <g id="line2d_21">
    <path clip-path="url(#pb287ad051e)" style="fill: none; stroke: #74abda; stroke-width: 1.4; stroke-linecap: square"/>
   </g>
   <g id="line2d_22">
    <path clip-path="url(#pb287ad051e)" style="fill: none; stroke: #3e8ac0; stroke-width: 1.4; stroke-linecap: square"/>
   </g>
   <g id="line2d_23">
    <path clip-path="url(#pb287ad051e)" style="fill: none; stroke: #1e5f99; stroke-width: 1.4; stroke-linecap: square"/>
   </g>
   <g id="line2d_24">
    <path clip-path="url(#pb287ad051e)" style="fill: none; stroke: #08306b; stroke-width: 1.4; stroke-linecap: square"/>
   </g>
   <g id="patch_7">
    <path style="fill: none; stroke: #000000; stroke-width: 0.8; stroke-linejoin: miter; stroke-linecap: square"/>
   </g>
   <g id="patch_8">
    <path style="fill: none; stroke: #000000; stroke-width: 0.8; stroke-linejoin: miter; stroke-linecap: square"/>
   </g>
   <g id="text_17">
    <!-- Film -->
    <g style="fill: #1764d8" transform="translate(-139.881188 -266.006351) scale(0.12 -0.12)">
     <defs>
      <path id="DejaVuSans-Bold-46" d="M 588 4666 
L 3834 4666 
L 3834 3756 
L 1791 3756 
L 1791 2888 
L 3713 2888 
L 3713 1978 
L 1791 1978 
L 1791 0 
L 588 0 
L 588 4666 
z
" transform="scale(0.015625)"/>
      <path id="DejaVuSans-Bold-69" d="M 538 3500 
L 1656 3500 
L 1656 0 
L 538 0 
L 538 3500 
z
M 538 4863 
L 1656 4863 
L 1656 3950 
L 538 3950 
L 538 4863 
z
" transform="scale(0.015625)"/>
      <path id="DejaVuSans-Bold-6c" d="M 538 4863 
L 1656 4863 
L 1656 0 
L 538 0 
L 538 4863 
z
" transform="scale(0.015625)"/>
      <path id="DejaVuSans-Bold-6d" d="M 3781 2919 
Q 3994 3244 4286 3414 
Q 4578 3584 4928 3584 
Q 5531 3584 5847 3212 
Q 6163 2841 6163 2131 
L 6163 0 
L 5038 0 
L 5038 1825 
Q 5041 1866 5042 1909 
Q 5044 1953 5044 2034 
Q 5044 2406 4934 2573 
Q 4825 2741 4581 2741 
Q 4263 2741 4089 2478 
Q 3916 2216 3909 1719 
L 3909 0 
L 2784 0 
L 2784 1825 
Q 2784 2406 2684 2573 
Q 2584 2741 2328 2741 
Q 2006 2741 1831 2477 
Q 1656 2213 1656 1722 
L 1656 0 
L 531 0 
L 531 3500 
L 1656 3500 
L 1656 2988 
Q 1863 3284 2130 3434 
Q 2397 3584 2719 3584 
Q 3081 3584 3359 3409 
Q 3638 3234 3781 2919 
z
" transform="scale(0.015625)"/>
     </defs>
     <use xlink:href="#DejaVuSans-Bold-46"/>
     <use xlink:href="#DejaVuSans-Bold-69" transform="translate(68.310547 0)"/>
     <use xlink:href="#DejaVuSans-Bold-6c" transform="translate(102.587891 0)"/>
     <use xlink:href="#DejaVuSans-Bold-6d" transform="translate(136.865234 0)"/>
    </g>
   </g>
   <g id="text_18">
    <!-- Break -->
    <g style="fill: #3d4b5c" transform="translate(-58.257125 -266.006351) scale(0.12 -0.12)">
     <defs>
      <path id="DejaVuSans-Bold-42" d="M 2456 2859 
Q 2741 2859 2887 2984 
Q 3034 3109 3034 3353 
Q 3034 3594 2887 3720 
Q 2741 3847 2456 3847 
L 1791 3847 
L 1791 2859 
L 2456 2859 
z
M 2497 819 
Q 2859 819 3042 972 
Q 3225 1125 3225 1434 
Q 3225 1738 3044 1889 
Q 2863 2041 2497 2041 
L 1791 2041 
L 1791 819 
L 2497 819 
z
M 3616 2497 
Q 4003 2384 4215 2081 
Q 4428 1778 4428 1338 
Q 4428 663 3972 331 
Q 3516 0 2584 0 
L 588 0 
L 588 4666 
L 2394 4666 
Q 3366 4666 3802 4372 
Q 4238 4078 4238 3431 
Q 4238 3091 4078 2852 
Q 3919 2613 3616 2497 
z
" transform="scale(0.015625)"/>
      <path id="DejaVuSans-Bold-72" d="M 3138 2547 
Q 2991 2616 2845 2648 
Q 2700 2681 2553 2681 
Q 2122 2681 1889 2404 
Q 1656 2128 1656 1613 
L 1656 0 
L 538 0 
L 538 3500 
L 1656 3500 
L 1656 2925 
Q 1872 3269 2151 3426 
Q 2431 3584 2822 3584 
Q 2878 3584 2943 3579 
Q 3009 3575 3134 3559 
L 3138 2547 
z
" transform="scale(0.015625)"/>
      <path id="DejaVuSans-Bold-65" d="M 4031 1759 
L 4031 1441 
L 1416 1441 
Q 1456 1047 1700 850 
Q 1944 653 2381 653 
Q 2734 653 3104 758 
Q 3475 863 3866 1075 
L 3866 213 
Q 3469 63 3072 -14 
Q 2675 -91 2278 -91 
Q 1328 -91 801 392 
Q 275 875 275 1747 
Q 275 2603 792 3093 
Q 1309 3584 2216 3584 
Q 3041 3584 3536 3087 
Q 4031 2591 4031 1759 
z
M 2881 2131 
Q 2881 2450 2695 2645 
Q 2509 2841 2209 2841 
Q 1884 2841 1681 2658 
Q 1478 2475 1428 2131 
L 2881 2131 
z
" transform="scale(0.015625)"/>
      <path id="DejaVuSans-Bold-61" d="M 2106 1575 
Q 1756 1575 1579 1456 
Q 1403 1338 1403 1106 
Q 1403 894 1545 773 
Q 1688 653 1941 653 
Q 2256 653 2472 879 
Q 2688 1106 2688 1447 
L 2688 1575 
L 2106 1575 
z
M 3816 1997 
L 3816 0 
L 2688 0 
L 2688 519 
Q 2463 200 2181 54 
Q 1900 -91 1497 -91 
Q 953 -91 614 226 
Q 275 544 275 1050 
Q 275 1666 698 1953 
Q 1122 2241 2028 2241 
L 2688 2241 
L 2688 2328 
Q 2688 2594 2478 2717 
Q 2269 2841 1825 2841 
Q 1466 2841 1156 2769 
Q 847 2697 581 2553 
L 581 3406 
Q 941 3494 1303 3539 
Q 1666 3584 2028 3584 
Q 2975 3584 3395 3211 
Q 3816 2838 3816 1997 
z
" transform="scale(0.015625)"/>
      <path id="DejaVuSans-Bold-6b" d="M 538 4863 
L 1656 4863 
L 1656 2216 
L 2944 3500 
L 4244 3500 
L 2534 1894 
L 4378 0 
L 3022 0 
L 1656 1459 
L 1656 0 
L 538 0 
L 538 4863 
z
" transform="scale(0.015625)"/>
     </defs>
     <use xlink:href="#DejaVuSans-Bold-42"/>
     <use xlink:href="#DejaVuSans-Bold-72" transform="translate(76.220703 0)"/>
     <use xlink:href="#DejaVuSans-Bold-65" transform="translate(125.537109 0)"/>
     <use xlink:href="#DejaVuSans-Bold-61" transform="translate(193.359375 0)"/>
     <use xlink:href="#DejaVuSans-Bold-6b" transform="translate(260.839844 0)"/>
    </g>
   </g>
   <g id="text_19">
    <!-- Task -->
    <g style="fill: #d96b2b" transform="translate(33.252875 -266.006351) scale(0.12 -0.12)">
     <defs>
      <path id="DejaVuSans-Bold-54" d="M 31 4666 
L 4331 4666 
L 4331 3756 
L 2784 3756 
L 2784 0 
L 1581 0 
L 1581 3756 
L 31 3756 
L 31 4666 
z
" transform="scale(0.015625)"/>
      <path id="DejaVuSans-Bold-73" d="M 3272 3391 
L 3272 2541 
Q 2913 2691 2578 2766 
Q 2244 2841 1947 2841 
Q 1628 2841 1473 2761 
Q 1319 2681 1319 2516 
Q 1319 2381 1436 2309 
Q 1553 2238 1856 2203 
L 2053 2175 
Q 2913 2066 3209 1816 
Q 3506 1566 3506 1031 
Q 3506 472 3093 190 
Q 2681 -91 1863 -91 
Q 1516 -91 1145 -36 
Q 775 19 384 128 
L 384 978 
Q 719 816 1070 734 
Q 1422 653 1784 653 
Q 2113 653 2278 743 
Q 2444 834 2444 1013 
Q 2444 1163 2330 1236 
Q 2216 1309 1875 1350 
L 1678 1375 
Q 931 1469 631 1722 
Q 331 1975 331 2491 
Q 331 3047 712 3315 
Q 1094 3584 1881 3584 
Q 2191 3584 2531 3537 
Q 2872 3491 3272 3391 
z
" transform="scale(0.015625)"/>
     </defs>
     <use xlink:href="#DejaVuSans-Bold-54"/>
     <use xlink:href="#DejaVuSans-Bold-61" transform="translate(55.337891 0)"/>
     <use xlink:href="#DejaVuSans-Bold-73" transform="translate(122.818359 0)"/>
     <use xlink:href="#DejaVuSans-Bold-6b" transform="translate(182.339844 0)"/>
    </g>
   </g>
   <g id="text_20">
    <!-- Filler -->
    <g style="fill: #3d4b5c" transform="translate(117.685687 -266.006351) scale(0.12 -0.12)">
     <use xlink:href="#DejaVuSans-Bold-46"/>
     <use xlink:href="#DejaVuSans-Bold-69" transform="translate(68.310547 0)"/>
     <use xlink:href="#DejaVuSans-Bold-6c" transform="translate(102.587891 0)"/>
     <use xlink:href="#DejaVuSans-Bold-6c" transform="translate(136.865234 0)"/>
     <use xlink:href="#DejaVuSans-Bold-65" transform="translate(171.142578 0)"/>
     <use xlink:href="#DejaVuSans-Bold-72" transform="translate(238.964844 0)"/>
    </g>
   </g>
   <g id="text_21">
    <!-- Film reminder -->
    <g style="fill: #178a4c" transform="translate(2.3985 -141.357884) rotate(-90) scale(0.12 -0.12)">
     <defs>
      <path id="DejaVuSans-Oblique-46" d="M 1081 4666 
L 3756 4666 
L 3653 4134 
L 1606 4134 
L 1338 2759 
L 3188 2759 
L 3084 2228 
L 1234 2228 
L 800 0 
L 172 0 
L 1081 4666 
z
" transform="scale(0.015625)"/>
      <path id="DejaVuSans-Oblique-69" d="M 1172 4863 
L 1747 4863 
L 1606 4134 
L 1031 4134 
L 1172 4863 
z
M 909 3500 
L 1484 3500 
L 800 0 
L 225 0 
L 909 3500 
z
" transform="scale(0.015625)"/>
      <path id="DejaVuSans-Oblique-6c" d="M 1172 4863 
L 1747 4863 
L 800 0 
L 225 0 
L 1172 4863 
z
" transform="scale(0.015625)"/>
      <path id="DejaVuSans-Oblique-6d" d="M 5747 2113 
L 5338 0 
L 4763 0 
L 5166 2094 
Q 5191 2228 5203 2325 
Q 5216 2422 5216 2491 
Q 5216 2772 5059 2928 
Q 4903 3084 4622 3084 
Q 4203 3084 3875 2770 
Q 3547 2456 3450 1953 
L 3066 0 
L 2491 0 
L 2900 2094 
Q 2925 2209 2937 2307 
Q 2950 2406 2950 2484 
Q 2950 2769 2794 2926 
Q 2638 3084 2363 3084 
Q 1938 3084 1609 2770 
Q 1281 2456 1184 1953 
L 800 0 
L 225 0 
L 909 3500 
L 1484 3500 
L 1375 2956 
Q 1609 3263 1923 3423 
Q 2238 3584 2597 3584 
Q 2978 3584 3223 3384 
Q 3469 3184 3519 2828 
Q 3781 3197 4126 3390 
Q 4472 3584 4856 3584 
Q 5306 3584 5551 3325 
Q 5797 3066 5797 2591 
Q 5797 2488 5784 2364 
Q 5772 2241 5747 2113 
z
" transform="scale(0.015625)"/>
      <path id="DejaVuSans-Oblique-20" transform="scale(0.015625)"/>
      <path id="DejaVuSans-Oblique-72" d="M 2853 2969 
Q 2766 3016 2653 3041 
Q 2541 3066 2413 3066 
Q 1953 3066 1609 2717 
Q 1266 2369 1153 1784 
L 800 0 
L 225 0 
L 909 3500 
L 1484 3500 
L 1375 2956 
Q 1603 3259 1920 3421 
Q 2238 3584 2597 3584 
Q 2691 3584 2781 3573 
Q 2872 3563 2963 3538 
L 2853 2969 
z
" transform="scale(0.015625)"/>
      <path id="DejaVuSans-Oblique-65" d="M 3078 2063 
Q 3088 2113 3092 2166 
Q 3097 2219 3097 2272 
Q 3097 2653 2873 2875 
Q 2650 3097 2266 3097 
Q 1838 3097 1509 2826 
Q 1181 2556 1013 2059 
L 3078 2063 
z
M 3578 1613 
L 903 1613 
Q 884 1494 878 1425 
Q 872 1356 872 1306 
Q 872 872 1139 634 
Q 1406 397 1894 397 
Q 2269 397 2603 481 
Q 2938 566 3225 728 
L 3116 159 
Q 2806 34 2476 -28 
Q 2147 -91 1806 -91 
Q 1078 -91 686 257 
Q 294 606 294 1247 
Q 294 1794 489 2264 
Q 684 2734 1063 3103 
Q 1306 3334 1642 3459 
Q 1978 3584 2356 3584 
Q 2950 3584 3301 3228 
Q 3653 2872 3653 2272 
Q 3653 2128 3634 1964 
Q 3616 1800 3578 1613 
z
" transform="scale(0.015625)"/>
      <path id="DejaVuSans-Oblique-6e" d="M 3566 2113 
L 3156 0 
L 2578 0 
L 2988 2091 
Q 3016 2238 3031 2350 
Q 3047 2463 3047 2528 
Q 3047 2791 2881 2937 
Q 2716 3084 2419 3084 
Q 1956 3084 1622 2776 
Q 1288 2469 1184 1941 
L 800 0 
L 225 0 
L 903 3500 
L 1478 3500 
L 1363 2950 
Q 1603 3253 1940 3418 
Q 2278 3584 2650 3584 
Q 3113 3584 3367 3334 
Q 3622 3084 3622 2631 
Q 3622 2519 3608 2391 
Q 3594 2263 3566 2113 
z
" transform="scale(0.015625)"/>
      <path id="DejaVuSans-Oblique-64" d="M 2675 525 
Q 2444 222 2128 65 
Q 1813 -91 1428 -91 
Q 903 -91 598 267 
Q 294 625 294 1247 
Q 294 1766 478 2236 
Q 663 2706 1013 3078 
Q 1244 3325 1534 3454 
Q 1825 3584 2144 3584 
Q 2481 3584 2739 3421 
Q 2997 3259 3138 2956 
L 3513 4863 
L 4091 4863 
L 3144 0 
L 2566 0 
L 2675 525 
z
M 891 1350 
Q 891 897 1095 644 
Q 1300 391 1663 391 
Q 1931 391 2161 520 
Q 2391 650 2566 903 
Q 2750 1166 2856 1509 
Q 2963 1853 2963 2188 
Q 2963 2622 2758 2865 
Q 2553 3109 2194 3109 
Q 1922 3109 1687 2981 
Q 1453 2853 1288 2613 
Q 1106 2353 998 2009 
Q 891 1666 891 1350 
z
" transform="scale(0.015625)"/>
     </defs>
     <use xlink:href="#DejaVuSans-Oblique-46"/>
     <use xlink:href="#DejaVuSans-Oblique-69" transform="translate(57.519531 0)"/>
     <use xlink:href="#DejaVuSans-Oblique-6c" transform="translate(85.302734 0)"/>
     <use xlink:href="#DejaVuSans-Oblique-6d" transform="translate(113.085938 0)"/>
     <use xlink:href="#DejaVuSans-Oblique-20" transform="translate(210.498047 0)"/>
     <use xlink:href="#DejaVuSans-Oblique-72" transform="translate(242.285156 0)"/>
     <use xlink:href="#DejaVuSans-Oblique-65" transform="translate(283.398438 0)"/>
     <use xlink:href="#DejaVuSans-Oblique-6d" transform="translate(344.921875 0)"/>
     <use xlink:href="#DejaVuSans-Oblique-69" transform="translate(442.333984 0)"/>
     <use xlink:href="#DejaVuSans-Oblique-6e" transform="translate(470.117188 0)"/>
     <use xlink:href="#DejaVuSans-Oblique-64" transform="translate(533.496094 0)"/>
     <use xlink:href="#DejaVuSans-Oblique-65" transform="translate(596.972656 0)"/>
     <use xlink:href="#DejaVuSans-Oblique-72" transform="translate(658.496094 0)"/>
    </g>
   </g>
   <g id="text_22">
    <!-- A -->
    <g transform="translate(-213.9525 -273.886703) scale(0.18 -0.18)">
     <defs>
      <path id="DejaVuSans-Bold-41" d="M 3419 850 
L 1538 850 
L 1241 0 
L 31 0 
L 1759 4666 
L 3194 4666 
L 4922 0 
L 3713 0 
L 3419 850 
z
M 1838 1716 
L 3116 1716 
L 2478 3572 
L 1838 1716 
z
" transform="scale(0.015625)"/>
     </defs>
     <use xlink:href="#DejaVuSans-Bold-41"/>
    </g>
   </g>
   <g id="text_23">
    <!-- Pre-recall support -->
    <g transform="translate(-57.023219 -291.501865) scale(0.14 -0.14)">
     <use xlink:href="#DejaVuSans-50"/>
     <use xlink:href="#DejaVuSans-72" transform="translate(58.552734 0)"/>
     <use xlink:href="#DejaVuSans-65" transform="translate(97.416016 0)"/>
     <use xlink:href="#DejaVuSans-2d" transform="translate(158.939453 0)"/>
     <use xlink:href="#DejaVuSans-72" transform="translate(195.023438 0)"/>
     <use xlink:href="#DejaVuSans-65" transform="translate(233.886719 0)"/>
     <use xlink:href="#DejaVuSans-63" transform="translate(295.410156 0)"/>
     <use xlink:href="#DejaVuSans-61" transform="translate(350.390625 0)"/>
     <use xlink:href="#DejaVuSans-6c" transform="translate(411.669922 0)"/>
     <use xlink:href="#DejaVuSans-6c" transform="translate(439.453125 0)"/>
     <use xlink:href="#DejaVuSans-20" transform="translate(467.236328 0)"/>
     <use xlink:href="#DejaVuSans-73" transform="translate(499.023438 0)"/>
     <use xlink:href="#DejaVuSans-75" transform="translate(551.123047 0)"/>
     <use xlink:href="#DejaVuSans-70" transform="translate(614.501953 0)"/>
     <use xlink:href="#DejaVuSans-70" transform="translate(677.978516 0)"/>
     <use xlink:href="#DejaVuSans-6f" transform="translate(741.455078 0)"/>
     <use xlink:href="#DejaVuSans-72" transform="translate(802.636719 0)"/>
     <use xlink:href="#DejaVuSans-74" transform="translate(843.75 0)"/>
    </g>
   </g>
  </g>
  <g id="axes_2">
   <g id="patch_9">
    <path d="M 273.321 -59.058824 
L 615.096 -59.058824 
L 615.096 -259.501865 
L 273.321 -259.501865 
z
" style="fill: #ffffff"/>
   </g>
   <g id="patch_10">
    <path d="M 270.6085 -59.058824 
L 357.4085 -59.058824 
L 357.4085 -259.501865 
L 270.6085 -259.501865 
z
" clip-path="url(#p167ff2e88c)" style="fill: #eaf2ff; opacity: 0.65; stroke: #eaf2ff; stroke-linejoin: miter"/>
   </g>
   <g id="patch_11">
    <path d="M 357.4085 -59.058824 
L 444.2085 -59.058824 
L 444.2085 -259.501865 
L 357.4085 -259.501865 
z
" clip-path="url(#p167ff2e88c)" style="fill: #f2f4f6; opacity: 0.65; stroke: #f2f4f6; stroke-linejoin: miter"/>
   </g>
   <g id="patch_12">
    <path d="M 444.2085 -59.058824 
L 531.0085 -59.058824 
L 531.0085 -259.501865 
L 444.2085 -259.501865 
z
" clip-path="url(#p167ff2e88c)" style="fill: #fff0e6; opacity: 0.65; stroke: #fff0e6; stroke-linejoin: miter"/>
   </g>
   <g id="patch_13">
    <path d="M 531.0085 -59.058824 
L 617.8085 -59.058824 
L 617.8085 -259.501865 
L 531.0085 -259.501865 
z
" clip-path="url(#p167ff2e88c)" style="fill: #f2f4f6; opacity: 0.65; stroke: #f2f4f6; stroke-linejoin: miter"/>
   </g>
   <g id="line2d_25">
    <path clip-path="url(#p167ff2e88c)" style="fill: none; stroke: #7c8794; stroke-opacity: 0.45; stroke-width: 0.7; stroke-linecap: square"/>
   </g>
   <g id="line2d_26">
    <path clip-path="url(#p167ff2e88c)" style="fill: none; stroke: #7c8794; stroke-opacity: 0.45; stroke-width: 0.7; stroke-linecap: square"/>
   </g>
   <g id="line2d_27">
    <path clip-path="url(#p167ff2e88c)" style="fill: none; stroke: #7c8794; stroke-opacity: 0.45; stroke-width: 0.7; stroke-linecap: square"/>
   </g>
   <g id="matplotlib.axis_3">
    <g id="xtick_7">
     <g id="line2d_28">
      <g/>
     </g>
     <g id="text_24">
      <!-- 10 -->
      <g transform="translate(315.7835 -44.460386) scale(0.1 -0.1)">
       <use xlink:href="#DejaVuSans-31"/>
       <use xlink:href="#DejaVuSans-30" transform="translate(63.623047 0)"/>
      </g>
     </g>
    </g>
    <g id="xtick_8">
     <g id="line2d_29">
      <g/>
     </g>
     <g id="text_25">
      <!-- 20 -->
      <g transform="translate(370.0335 -44.460386) scale(0.1 -0.1)">
       <use xlink:href="#DejaVuSans-32"/>
       <use xlink:href="#DejaVuSans-30" transform="translate(63.623047 0)"/>
      </g>
     </g>
    </g>
    <g id="xtick_9">
     <g id="line2d_30">
      <g/>
     </g>
     <g id="text_26">
      <!-- 30 -->
      <g transform="translate(424.2835 -44.460386) scale(0.1 -0.1)">
       <use xlink:href="#DejaVuSans-33"/>
       <use xlink:href="#DejaVuSans-30" transform="translate(63.623047 0)"/>
      </g>
     </g>
    </g>
    <g id="xtick_10">
     <g id="line2d_31">
      <g/>
     </g>
     <g id="text_27">
      <!-- 40 -->
      <g transform="translate(478.5335 -44.460386) scale(0.1 -0.1)">
       <use xlink:href="#DejaVuSans-34"/>
       <use xlink:href="#DejaVuSans-30" transform="translate(63.623047 0)"/>
      </g>
     </g>
    </g>
    <g id="xtick_11">
     <g id="line2d_32">
      <g/>
     </g>
     <g id="text_28">
      <!-- 50 -->
      <g transform="translate(532.7835 -44.460386) scale(0.1 -0.1)">
       <use xlink:href="#DejaVuSans-35"/>
       <use xlink:href="#DejaVuSans-30" transform="translate(63.623047 0)"/>
      </g>
     </g>
    </g>
    <g id="xtick_12">
     <g id="line2d_33">
      <g/>
     </g>
     <g id="text_29">
      <!-- 60 -->
      <g transform="translate(587.0335 -44.460386) scale(0.1 -0.1)">
       <use xlink:href="#DejaVuSans-36"/>
       <use xlink:href="#DejaVuSans-30" transform="translate(63.623047 0)"/>
      </g>
     </g>
    </g>
    <g id="text_30">
     <!-- Encoded position -->
     <g transform="translate(392.661937 -29.262574) scale(0.12 -0.12)">
      <use xlink:href="#DejaVuSans-45"/>
      <use xlink:href="#DejaVuSans-6e" transform="translate(63.183594 0)"/>
      <use xlink:href="#DejaVuSans-63" transform="translate(126.5625 0)"/>
      <use xlink:href="#DejaVuSans-6f" transform="translate(181.542969 0)"/>
      <use xlink:href="#DejaVuSans-64" transform="translate(242.724609 0)"/>
      <use xlink:href="#DejaVuSans-65" transform="translate(306.201172 0)"/>
      <use xlink:href="#DejaVuSans-64" transform="translate(367.724609 0)"/>
      <use xlink:href="#DejaVuSans-20" transform="translate(431.201172 0)"/>
      <use xlink:href="#DejaVuSans-70" transform="translate(462.988281 0)"/>
      <use xlink:href="#DejaVuSans-6f" transform="translate(526.464844 0)"/>
      <use xlink:href="#DejaVuSans-73" transform="translate(587.646484 0)"/>
      <use xlink:href="#DejaVuSans-69" transform="translate(639.746094 0)"/>
      <use xlink:href="#DejaVuSans-74" transform="translate(667.529297 0)"/>
      <use xlink:href="#DejaVuSans-69" transform="translate(706.738281 0)"/>
      <use xlink:href="#DejaVuSans-6f" transform="translate(734.521484 0)"/>
      <use xlink:href="#DejaVuSans-6e" transform="translate(795.703125 0)"/>
     </g>
    </g>
   </g>
   <g id="matplotlib.axis_4">
    <g id="ytick_9">
     <g id="line2d_34">
      <g/>
     </g>
     <g id="text_31">
      <!-- 0.0 -->
      <g transform="translate(250.417875 -58.838945) scale(0.1 -0.1)">
       <use xlink:href="#DejaVuSans-30"/>
       <use xlink:href="#DejaVuSans-2e" transform="translate(63.623047 0)"/>
       <use xlink:href="#DejaVuSans-30" transform="translate(95.410156 0)"/>
      </g>
     </g>
    </g>
    <g id="ytick_10">
     <g id="line2d_35">
      <g/>
     </g>
     <g id="text_32">
      <!-- 0.1 -->
      <g transform="translate(250.417875 -94.632345) scale(0.1 -0.1)">
       <use xlink:href="#DejaVuSans-30"/>
       <use xlink:href="#DejaVuSans-2e" transform="translate(63.623047 0)"/>
       <use xlink:href="#DejaVuSans-31" transform="translate(95.410156 0)"/>
      </g>
     </g>
    </g>
    <g id="ytick_11">
     <g id="line2d_36">
      <g/>
     </g>
     <g id="text_33">
      <!-- 0.2 -->
      <g transform="translate(250.417875 -130.425745) scale(0.1 -0.1)">
       <use xlink:href="#DejaVuSans-30"/>
       <use xlink:href="#DejaVuSans-2e" transform="translate(63.623047 0)"/>
       <use xlink:href="#DejaVuSans-32" transform="translate(95.410156 0)"/>
      </g>
     </g>
    </g>
    <g id="ytick_12">
     <g id="line2d_37">
      <g/>
     </g>
     <g id="text_34">
      <!-- 0.3 -->
      <g transform="translate(250.417875 -166.219146) scale(0.1 -0.1)">
       <use xlink:href="#DejaVuSans-30"/>
       <use xlink:href="#DejaVuSans-2e" transform="translate(63.623047 0)"/>
       <use xlink:href="#DejaVuSans-33" transform="translate(95.410156 0)"/>
      </g>
     </g>
    </g>
    <g id="ytick_13">
     <g id="line2d_38">
      <g/>
     </g>
     <g id="text_35">
      <!-- 0.4 -->
      <g transform="translate(250.417875 -202.012546) scale(0.1 -0.1)">
       <use xlink:href="#DejaVuSans-30"/>
       <use xlink:href="#DejaVuSans-2e" transform="translate(63.623047 0)"/>
       <use xlink:href="#DejaVuSans-34" transform="translate(95.410156 0)"/>
      </g>
     </g>
    </g>
    <g id="ytick_14">
     <g id="line2d_39">
      <g/>
     </g>
     <g id="text_36">
      <!-- 0.5 -->
      <g transform="translate(250.417875 -237.805946) scale(0.1 -0.1)">
       <use xlink:href="#DejaVuSans-30"/>
       <use xlink:href="#DejaVuSans-2e" transform="translate(63.623047 0)"/>
       <use xlink:href="#DejaVuSans-35" transform="translate(95.410156 0)"/>
      </g>
     </g>
    </g>
    <g id="text_37">
     <!-- Probability of first recall -->
     <g transform="translate(243.92225 -88.005032) rotate(-90) scale(0.12 -0.12)">
      <defs>
       <path id="DejaVuSans-62" d="M 3116 1747 
Q 3116 2381 2855 2742 
Q 2594 3103 2138 3103 
Q 1681 3103 1420 2742 
Q 1159 2381 1159 1747 
Q 1159 1113 1420 752 
Q 1681 391 2138 391 
Q 2594 391 2855 752 
Q 3116 1113 3116 1747 
z
M 1159 2969 
Q 1341 3281 1617 3432 
Q 1894 3584 2278 3584 
Q 2916 3584 3314 3078 
Q 3713 2572 3713 1747 
Q 3713 922 3314 415 
Q 2916 -91 2278 -91 
Q 1894 -91 1617 61 
Q 1341 213 1159 525 
L 1159 0 
L 581 0 
L 581 4863 
L 1159 4863 
L 1159 2969 
z
" transform="scale(0.015625)"/>
       <path id="DejaVuSans-79" d="M 2059 -325 
Q 1816 -950 1584 -1140 
Q 1353 -1331 966 -1331 
L 506 -1331 
L 506 -850 
L 844 -850 
Q 1081 -850 1212 -737 
Q 1344 -625 1503 -206 
L 1606 56 
L 191 3500 
L 800 3500 
L 1894 763 
L 2988 3500 
L 3597 3500 
L 2059 -325 
z
" transform="scale(0.015625)"/>
       <path id="DejaVuSans-66" d="M 2375 4863 
L 2375 4384 
L 1825 4384 
Q 1516 4384 1395 4259 
Q 1275 4134 1275 3809 
L 1275 3500 
L 2222 3500 
L 2222 3053 
L 1275 3053 
L 1275 0 
L 697 0 
L 697 3053 
L 147 3053 
L 147 3500 
L 697 3500 
L 697 3744 
Q 697 4328 969 4595 
Q 1241 4863 1831 4863 
L 2375 4863 
z
" transform="scale(0.015625)"/>
      </defs>
      <use xlink:href="#DejaVuSans-50"/>
      <use xlink:href="#DejaVuSans-72" transform="translate(58.552734 0)"/>
      <use xlink:href="#DejaVuSans-6f" transform="translate(97.416016 0)"/>
      <use xlink:href="#DejaVuSans-62" transform="translate(158.597656 0)"/>
      <use xlink:href="#DejaVuSans-61" transform="translate(222.074219 0)"/>
      <use xlink:href="#DejaVuSans-62" transform="translate(283.353516 0)"/>
      <use xlink:href="#DejaVuSans-69" transform="translate(346.830078 0)"/>
      <use xlink:href="#DejaVuSans-6c" transform="translate(374.613281 0)"/>
      <use xlink:href="#DejaVuSans-69" transform="translate(402.396484 0)"/>
      <use xlink:href="#DejaVuSans-74" transform="translate(430.179688 0)"/>
      <use xlink:href="#DejaVuSans-79" transform="translate(469.388672 0)"/>
      <use xlink:href="#DejaVuSans-20" transform="translate(528.568359 0)"/>
      <use xlink:href="#DejaVuSans-6f" transform="translate(560.355469 0)"/>
      <use xlink:href="#DejaVuSans-66" transform="translate(621.537109 0)"/>
      <use xlink:href="#DejaVuSans-20" transform="translate(656.742188 0)"/>
      <use xlink:href="#DejaVuSans-66" transform="translate(688.529297 0)"/>
      <use xlink:href="#DejaVuSans-69" transform="translate(723.734375 0)"/>
      <use xlink:href="#DejaVuSans-72" transform="translate(751.517578 0)"/>
      <use xlink:href="#DejaVuSans-73" transform="translate(792.630859 0)"/>
      <use xlink:href="#DejaVuSans-74" transform="translate(844.730469 0)"/>
      <use xlink:href="#DejaVuSans-20" transform="translate(883.939453 0)"/>
      <use xlink:href="#DejaVuSans-72" transform="translate(915.726562 0)"/>
      <use xlink:href="#DejaVuSans-65" transform="translate(954.589844 0)"/>
      <use xlink:href="#DejaVuSans-63" transform="translate(1016.113281 0)"/>
      <use xlink:href="#DejaVuSans-61" transform="translate(1071.09375 0)"/>
      <use xlink:href="#DejaVuSans-6c" transform="translate(1132.373047 0)"/>
      <use xlink:href="#DejaVuSans-6c" transform="translate(1160.15625 0)"/>
     </g>
    </g>
   </g>
   <g id="line2d_40">
    <path clip-path="url(#p167ff2e88c)" style="fill: none; stroke: #178a4c; stroke-opacity: 0.85; stroke-width: 1.8; stroke-linecap: square"/>
   </g>
   <g id="line2d_41">
    <path clip-path="url(#p167ff2e88c)" style="fill: none; stroke: #d7e8fa; stroke-width: 1.4; stroke-linecap: square"/>
   </g>
   <g id="line2d_42">
    <path clip-path="url(#p167ff2e88c)" style="fill: none; stroke: #a6caec; stroke-width: 1.4; stroke-linecap: square"/>
   </g>
   <g id="line2d_43">
    <path clip-path="url(#p167ff2e88c)" style="fill: none; stroke: #74abda; stroke-width: 1.4; stroke-linecap: square"/>
   </g>
   <g id="line2d_44">
    <path clip-path="url(#p167ff2e88c)" style="fill: none; stroke: #3e8ac0; stroke-width: 1.4; stroke-linecap: square"/>
   </g>
   <g id="line2d_45">
    <path clip-path="url(#p167ff2e88c)" style="fill: none; stroke: #1e5f99; stroke-width: 1.4; stroke-linecap: square"/>
   </g>
   <g id="line2d_46">
    <path clip-path="url(#p167ff2e88c)" style="fill: none; stroke: #08306b; stroke-width: 1.4; stroke-linecap: square"/>
   </g>
   <g id="patch_14">
    <path style="fill: none; stroke: #000000; stroke-width: 0.8; stroke-linejoin: miter; stroke-linecap: square"/>
   </g>
   <g id="patch_15">
    <path style="fill: none; stroke: #000000; stroke-width: 0.8; stroke-linejoin: miter; stroke-linecap: square"/>
   </g>
   <g id="text_38">
    <!-- Film -->
    <g style="fill: #1764d8" transform="translate(299.543812 -266.006351) scale(0.12 -0.12)">
     <use xlink:href="#DejaVuSans-Bold-46"/>
     <use xlink:href="#DejaVuSans-Bold-69" transform="translate(68.310547 0)"/>
     <use xlink:href="#DejaVuSans-Bold-6c" transform="translate(102.587891 0)"/>
     <use xlink:href="#DejaVuSans-Bold-6d" transform="translate(136.865234 0)"/>
    </g>
   </g>
   <g id="text_39">
    <!-- Break -->
    <g style="fill: #3d4b5c" transform="translate(381.167875 -266.006351) scale(0.12 -0.12)">
     <use xlink:href="#DejaVuSans-Bold-42"/>
     <use xlink:href="#DejaVuSans-Bold-72" transform="translate(76.220703 0)"/>
     <use xlink:href="#DejaVuSans-Bold-65" transform="translate(125.537109 0)"/>
     <use xlink:href="#DejaVuSans-Bold-61" transform="translate(193.359375 0)"/>
     <use xlink:href="#DejaVuSans-Bold-6b" transform="translate(260.839844 0)"/>
    </g>
   </g>
   <g id="text_40">
    <!-- Task -->
    <g style="fill: #d96b2b" transform="translate(472.677875 -266.006351) scale(0.12 -0.12)">
     <use xlink:href="#DejaVuSans-Bold-54"/>
     <use xlink:href="#DejaVuSans-Bold-61" transform="translate(55.337891 0)"/>
     <use xlink:href="#DejaVuSans-Bold-73" transform="translate(122.818359 0)"/>
     <use xlink:href="#DejaVuSans-Bold-6b" transform="translate(182.339844 0)"/>
    </g>
   </g>
   <g id="text_41">
    <!-- Filler -->
    <g style="fill: #3d4b5c" transform="translate(557.110688 -266.006351) scale(0.12 -0.12)">
     <use xlink:href="#DejaVuSans-Bold-46"/>
     <use xlink:href="#DejaVuSans-Bold-69" transform="translate(68.310547 0)"/>
     <use xlink:href="#DejaVuSans-Bold-6c" transform="translate(102.587891 0)"/>
     <use xlink:href="#DejaVuSans-Bold-6c" transform="translate(136.865234 0)"/>
     <use xlink:href="#DejaVuSans-Bold-65" transform="translate(171.142578 0)"/>
     <use xlink:href="#DejaVuSans-Bold-72" transform="translate(238.964844 0)"/>
    </g>
   </g>
   <g id="text_42">
    <!-- Film reminder -->
    <g style="fill: #178a4c" transform="translate(441.8235 -141.357884) rotate(-90) scale(0.12 -0.12)">
     <use xlink:href="#DejaVuSans-Oblique-46"/>
     <use xlink:href="#DejaVuSans-Oblique-69" transform="translate(57.519531 0)"/>
     <use xlink:href="#DejaVuSans-Oblique-6c" transform="translate(85.302734 0)"/>
     <use xlink:href="#DejaVuSans-Oblique-6d" transform="translate(113.085938 0)"/>
     <use xlink:href="#DejaVuSans-Oblique-20" transform="translate(210.498047 0)"/>
     <use xlink:href="#DejaVuSans-Oblique-72" transform="translate(242.285156 0)"/>
     <use xlink:href="#DejaVuSans-Oblique-65" transform="translate(283.398438 0)"/>
     <use xlink:href="#DejaVuSans-Oblique-6d" transform="translate(344.921875 0)"/>
     <use xlink:href="#DejaVuSans-Oblique-69" transform="translate(442.333984 0)"/>
     <use xlink:href="#DejaVuSans-Oblique-6e" transform="translate(470.117188 0)"/>
     <use xlink:href="#DejaVuSans-Oblique-64" transform="translate(533.496094 0)"/>
     <use xlink:href="#DejaVuSans-Oblique-65" transform="translate(596.972656 0)"/>
     <use xlink:href="#DejaVuSans-Oblique-72" transform="translate(658.496094 0)"/>
    </g>
   </g>
   <g id="text_43">
    <!-- B -->
    <g transform="translate(225.4725 -273.886703) scale(0.18 -0.18)">
     <use xlink:href="#DejaVuSans-Bold-42"/>
    </g>
   </g>
   <g id="text_44">
    <!-- Recall initiation -->
    <g transform="translate(390.38725 -291.501865) scale(0.14 -0.14)">
     <defs>
      <path id="DejaVuSans-52" d="M 2841 2188 
Q 3044 2119 3236 1894 
Q 3428 1669 3622 1275 
L 4263 0 
L 3584 0 
L 2988 1197 
Q 2756 1666 2539 1819 
Q 2322 1972 1947 1972 
L 1259 1972 
L 1259 0 
L 628 0 
L 628 4666 
L 2053 4666 
Q 2853 4666 3247 4331 
Q 3641 3997 3641 3322 
Q 3641 2881 3436 2590 
Q 3231 2300 2841 2188 
z
M 1259 4147 
L 1259 2491 
L 2053 2491 
Q 2509 2491 2742 2702 
Q 2975 2913 2975 3322 
Q 2975 3731 2742 3939 
Q 2509 4147 2053 4147 
L 1259 4147 
z
" transform="scale(0.015625)"/>
     </defs>
     <use xlink:href="#DejaVuSans-52"/>
     <use xlink:href="#DejaVuSans-65" transform="translate(64.982422 0)"/>
     <use xlink:href="#DejaVuSans-63" transform="translate(126.505859 0)"/>
     <use xlink:href="#DejaVuSans-61" transform="translate(181.486328 0)"/>
     <use xlink:href="#DejaVuSans-6c" transform="translate(242.765625 0)"/>
     <use xlink:href="#DejaVuSans-6c" transform="translate(270.548828 0)"/>
     <use xlink:href="#DejaVuSans-20" transform="translate(298.332031 0)"/>
     <use xlink:href="#DejaVuSans-69" transform="translate(330.119141 0)"/>
     <use xlink:href="#DejaVuSans-6e" transform="translate(357.902344 0)"/>
     <use xlink:href="#DejaVuSans-69" transform="translate(421.28125 0)"/>
     <use xlink:href="#DejaVuSans-74" transform="translate(449.064453 0)"/>
     <use xlink:href="#DejaVuSans-69" transform="translate(488.273438 0)"/>
     <use xlink:href="#DejaVuSans-61" transform="translate(516.056641 0)"/>
     <use xlink:href="#DejaVuSans-74" transform="translate(577.335938 0)"/>
     <use xlink:href="#DejaVuSans-69" transform="translate(616.544922 0)"/>
     <use xlink:href="#DejaVuSans-6f" transform="translate(644.328125 0)"/>
     <use xlink:href="#DejaVuSans-6e" transform="translate(705.509766 0)"/>
    </g>
   </g>
  </g>
  <g id="axes_3">
   <g id="patch_16">
    <path d="M 53.6085 239.458135 
L 395.3835 239.458135 
L 395.3835 48.56 
L 53.6085 48.56 
z
" style="fill: #ffffff"/>
   </g>
   <g id="patch_17">
    <path d="M 50.896 239.458135 
L 137.696 239.458135 
L 137.696 48.56 
L 50.896 48.56 
z
" clip-path="url(#pe91ea03c8b)" style="fill: #eaf2ff; opacity: 0.65; stroke: #eaf2ff; stroke-linejoin: miter"/>
   </g>
   <g id="patch_18">
    <path d="M 137.696 239.458135 
L 224.496 239.458135 
L 224.496 48.56 
L 137.696 48.56 
z
" clip-path="url(#pe91ea03c8b)" style="fill: #f2f4f6; opacity: 0.65; stroke: #f2f4f6; stroke-linejoin: miter"/>
   </g>
   <g id="patch_19">
    <path d="M 224.496 239.458135 
L 311.296 239.458135 
L 311.296 48.56 
L 224.496 48.56 
z
" clip-path="url(#pe91ea03c8b)" style="fill: #fff0e6; opacity: 0.65; stroke: #fff0e6; stroke-linejoin: miter"/>
   </g>
   <g id="patch_20">
    <path d="M 311.296 239.458135 
L 398.096 239.458135 
L 398.096 48.56 
L 311.296 48.56 
z
" clip-path="url(#pe91ea03c8b)" style="fill: #f2f4f6; opacity: 0.65; stroke: #f2f4f6; stroke-linejoin: miter"/>
   </g>
   <g id="line2d_47">
    <path d="M 137.696 239.458135 
L 137.696 48.56 
" clip-path="url(#pe91ea03c8b)" style="fill: none; stroke: #7c8794; stroke-opacity: 0.45; stroke-width: 0.7; stroke-linecap: square"/>
   </g>
   <g id="line2d_48">
    <path d="M 224.496 239.458135 
L 224.496 48.56 
" clip-path="url(#pe91ea03c8b)" style="fill: none; stroke: #7c8794; stroke-opacity: 0.45; stroke-width: 0.7; stroke-linecap: square"/>
   </g>
   <g id="line2d_49">
    <path d="M 311.296 239.458135 
L 311.296 48.56 
" clip-path="url(#pe91ea03c8b)" style="fill: none; stroke: #7c8794; stroke-opacity: 0.45; stroke-width: 0.7; stroke-linecap: square"/>
   </g>
   <g id="matplotlib.axis_5">
    <g id="xtick_13">
     <g id="line2d_50">
      <g>
       <use xlink:href="#m0ffe20cec8" x="102.4335" y="239.458135" style="stroke: #000000; stroke-width: 0.8"/>
      </g>
     </g>
     <g id="text_45">
      <!-- 10 -->
      <g transform="translate(96.071 254.056572) scale(0.1 -0.1)">
       <use xlink:href="#DejaVuSans-31"/>
       <use xlink:href="#DejaVuSans-30" transform="translate(63.623047 0)"/>
      </g>
     </g>
    </g>
    <g id="xtick_14">
     <g id="line2d_51">
      <g>
       <use xlink:href="#m0ffe20cec8" x="156.6835" y="239.458135" style="stroke: #000000; stroke-width: 0.8"/>
      </g>
     </g>
     <g id="text_46">
      <!-- 20 -->
      <g transform="translate(150.321 254.056572) scale(0.1 -0.1)">
       <use xlink:href="#DejaVuSans-32"/>
       <use xlink:href="#DejaVuSans-30" transform="translate(63.623047 0)"/>
      </g>
     </g>
    </g>
    <g id="xtick_15">
     <g id="line2d_52">
      <g>
       <use xlink:href="#m0ffe20cec8" x="210.9335" y="239.458135" style="stroke: #000000; stroke-width: 0.8"/>
      </g>
     </g>
     <g id="text_47">
      <!-- 30 -->
      <g transform="translate(204.571 254.056572) scale(0.1 -0.1)">
       <use xlink:href="#DejaVuSans-33"/>
       <use xlink:href="#DejaVuSans-30" transform="translate(63.623047 0)"/>
      </g>
     </g>
    </g>
    <g id="xtick_16">
     <g id="line2d_53">
      <g>
       <use xlink:href="#m0ffe20cec8" x="265.1835" y="239.458135" style="stroke: #000000; stroke-width: 0.8"/>
      </g>
     </g>
     <g id="text_48">
      <!-- 40 -->
      <g transform="translate(258.821 254.056572) scale(0.1 -0.1)">
       <use xlink:href="#DejaVuSans-34"/>
       <use xlink:href="#DejaVuSans-30" transform="translate(63.623047 0)"/>
      </g>
     </g>
    </g>
    <g id="xtick_17">
     <g id="line2d_54">
      <g>
       <use xlink:href="#m0ffe20cec8" x="319.4335" y="239.458135" style="stroke: #000000; stroke-width: 0.8"/>
      </g>
     </g>
     <g id="text_49">
      <!-- 50 -->
      <g transform="translate(313.071 254.056572) scale(0.1 -0.1)">
       <use xlink:href="#DejaVuSans-35"/>
       <use xlink:href="#DejaVuSans-30" transform="translate(63.623047 0)"/>
      </g>
     </g>
    </g>
    <g id="xtick_18">
     <g id="line2d_55">
      <g>
       <use xlink:href="#m0ffe20cec8" x="373.6835" y="239.458135" style="stroke: #000000; stroke-width: 0.8"/>
      </g>
     </g>
     <g id="text_50">
      <!-- 60 -->
      <g transform="translate(367.321 254.056572) scale(0.1 -0.1)">
       <use xlink:href="#DejaVuSans-36"/>
       <use xlink:href="#DejaVuSans-30" transform="translate(63.623047 0)"/>
      </g>
     </g>
    </g>
    <g id="text_51">
     <!-- Encoded position -->
     <g transform="translate(172.949437 269.254385) scale(0.12 -0.12)">
      <use xlink:href="#DejaVuSans-45"/>
      <use xlink:href="#DejaVuSans-6e" transform="translate(63.183594 0)"/>
      <use xlink:href="#DejaVuSans-63" transform="translate(126.5625 0)"/>
      <use xlink:href="#DejaVuSans-6f" transform="translate(181.542969 0)"/>
      <use xlink:href="#DejaVuSans-64" transform="translate(242.724609 0)"/>
      <use xlink:href="#DejaVuSans-65" transform="translate(306.201172 0)"/>
      <use xlink:href="#DejaVuSans-64" transform="translate(367.724609 0)"/>
      <use xlink:href="#DejaVuSans-20" transform="translate(431.201172 0)"/>
      <use xlink:href="#DejaVuSans-70" transform="translate(462.988281 0)"/>
      <use xlink:href="#DejaVuSans-6f" transform="translate(526.464844 0)"/>
      <use xlink:href="#DejaVuSans-73" transform="translate(587.646484 0)"/>
      <use xlink:href="#DejaVuSans-69" transform="translate(639.746094 0)"/>
      <use xlink:href="#DejaVuSans-74" transform="translate(667.529297 0)"/>
      <use xlink:href="#DejaVuSans-69" transform="translate(706.738281 0)"/>
      <use xlink:href="#DejaVuSans-6f" transform="translate(734.521484 0)"/>
      <use xlink:href="#DejaVuSans-6e" transform="translate(795.703125 0)"/>
     </g>
    </g>
   </g>
   <g id="matplotlib.axis_6">
    <g id="ytick_15">
     <g id="line2d_56">
      <g>
       <use xlink:href="#m19bc501d31" x="53.6085" y="233.300131" style="stroke: #000000; stroke-width: 0.8"/>
      </g>
     </g>
     <g id="text_52">
      <!-- 0.0 -->
      <g transform="translate(30.705375 237.099349) scale(0.1 -0.1)">
       <use xlink:href="#DejaVuSans-30"/>
       <use xlink:href="#DejaVuSans-2e" transform="translate(63.623047 0)"/>
       <use xlink:href="#DejaVuSans-30" transform="translate(95.410156 0)"/>
      </g>
     </g>
    </g>
    <g id="ytick_16">
     <g id="line2d_57">
      <g>
       <use xlink:href="#m19bc501d31" x="53.6085" y="208.668113" style="stroke: #000000; stroke-width: 0.8"/>
      </g>
     </g>
     <g id="text_53">
      <!-- 0.1 -->
      <g transform="translate(30.705375 212.467332) scale(0.1 -0.1)">
       <use xlink:href="#DejaVuSans-30"/>
       <use xlink:href="#DejaVuSans-2e" transform="translate(63.623047 0)"/>
       <use xlink:href="#DejaVuSans-31" transform="translate(95.410156 0)"/>
      </g>
     </g>
    </g>
    <g id="ytick_17">
     <g id="line2d_58">
      <g>
       <use xlink:href="#m19bc501d31" x="53.6085" y="184.036096" style="stroke: #000000; stroke-width: 0.8"/>
      </g>
     </g>
     <g id="text_54">
      <!-- 0.2 -->
      <g transform="translate(30.705375 187.835314) scale(0.1 -0.1)">
       <use xlink:href="#DejaVuSans-30"/>
       <use xlink:href="#DejaVuSans-2e" transform="translate(63.623047 0)"/>
       <use xlink:href="#DejaVuSans-32" transform="translate(95.410156 0)"/>
      </g>
     </g>
    </g>
    <g id="ytick_18">
     <g id="line2d_59">
      <g>
       <use xlink:href="#m19bc501d31" x="53.6085" y="159.404078" style="stroke: #000000; stroke-width: 0.8"/>
      </g>
     </g>
     <g id="text_55">
      <!-- 0.3 -->
      <g transform="translate(30.705375 163.203297) scale(0.1 -0.1)">
       <use xlink:href="#DejaVuSans-30"/>
       <use xlink:href="#DejaVuSans-2e" transform="translate(63.623047 0)"/>
       <use xlink:href="#DejaVuSans-33" transform="translate(95.410156 0)"/>
      </g>
     </g>
    </g>
    <g id="ytick_19">
     <g id="line2d_60">
      <g>
       <use xlink:href="#m19bc501d31" x="53.6085" y="134.772061" style="stroke: #000000; stroke-width: 0.8"/>
      </g>
     </g>
     <g id="text_56">
      <!-- 0.4 -->
      <g transform="translate(30.705375 138.57128) scale(0.1 -0.1)">
       <use xlink:href="#DejaVuSans-30"/>
       <use xlink:href="#DejaVuSans-2e" transform="translate(63.623047 0)"/>
       <use xlink:href="#DejaVuSans-34" transform="translate(95.410156 0)"/>
      </g>
     </g>
    </g>
    <g id="ytick_20">
     <g id="line2d_61">
      <g>
       <use xlink:href="#m19bc501d31" x="53.6085" y="110.140044" style="stroke: #000000; stroke-width: 0.8"/>
      </g>
     </g>
     <g id="text_57">
      <!-- 0.5 -->
      <g transform="translate(30.705375 113.939262) scale(0.1 -0.1)">
       <use xlink:href="#DejaVuSans-30"/>
       <use xlink:href="#DejaVuSans-2e" transform="translate(63.623047 0)"/>
       <use xlink:href="#DejaVuSans-35" transform="translate(95.410156 0)"/>
      </g>
     </g>
    </g>
    <g id="ytick_21">
     <g id="line2d_62">
      <g>
       <use xlink:href="#m19bc501d31" x="53.6085" y="85.508026" style="stroke: #000000; stroke-width: 0.8"/>
      </g>
     </g>
     <g id="text_58">
      <!-- 0.6 -->
      <g transform="translate(30.705375 89.307245) scale(0.1 -0.1)">
       <use xlink:href="#DejaVuSans-30"/>
       <use xlink:href="#DejaVuSans-2e" transform="translate(63.623047 0)"/>
       <use xlink:href="#DejaVuSans-36" transform="translate(95.410156 0)"/>
      </g>
     </g>
    </g>
    <g id="ytick_22">
     <g id="line2d_63">
      <g>
       <use xlink:href="#m19bc501d31" x="53.6085" y="60.876009" style="stroke: #000000; stroke-width: 0.8"/>
      </g>
     </g>
     <g id="text_59">
      <!-- 0.7 -->
      <g transform="translate(30.705375 64.675227) scale(0.1 -0.1)">
       <defs>
        <path id="DejaVuSans-37" d="M 525 4666 
L 3525 4666 
L 3525 4397 
L 1831 0 
L 1172 0 
L 2766 4134 
L 525 4134 
L 525 4666 
z
" transform="scale(0.015625)"/>
       </defs>
       <use xlink:href="#DejaVuSans-30"/>
       <use xlink:href="#DejaVuSans-2e" transform="translate(63.623047 0)"/>
       <use xlink:href="#DejaVuSans-37" transform="translate(95.410156 0)"/>
      </g>
     </g>
    </g>
    <g id="text_60">
     <!-- Recall probability -->
     <g transform="translate(24.20975 195.827505) rotate(-90) scale(0.12 -0.12)">
      <use xlink:href="#DejaVuSans-52"/>
      <use xlink:href="#DejaVuSans-65" transform="translate(64.982422 0)"/>
      <use xlink:href="#DejaVuSans-63" transform="translate(126.505859 0)"/>
      <use xlink:href="#DejaVuSans-61" transform="translate(181.486328 0)"/>
      <use xlink:href="#DejaVuSans-6c" transform="translate(242.765625 0)"/>
      <use xlink:href="#DejaVuSans-6c" transform="translate(270.548828 0)"/>
      <use xlink:href="#DejaVuSans-20" transform="translate(298.332031 0)"/>
      <use xlink:href="#DejaVuSans-70" transform="translate(330.119141 0)"/>
      <use xlink:href="#DejaVuSans-72" transform="translate(393.595703 0)"/>
      <use xlink:href="#DejaVuSans-6f" transform="translate(432.458984 0)"/>
      <use xlink:href="#DejaVuSans-62" transform="translate(493.640625 0)"/>
      <use xlink:href="#DejaVuSans-61" transform="translate(557.117188 0)"/>
      <use xlink:href="#DejaVuSans-62" transform="translate(618.396484 0)"/>
      <use xlink:href="#DejaVuSans-69" transform="translate(681.873047 0)"/>
      <use xlink:href="#DejaVuSans-6c" transform="translate(709.65625 0)"/>
      <use xlink:href="#DejaVuSans-69" transform="translate(737.439453 0)"/>
      <use xlink:href="#DejaVuSans-74" transform="translate(765.222656 0)"/>
      <use xlink:href="#DejaVuSans-79" transform="translate(804.431641 0)"/>
     </g>
    </g>
   </g>
   <g id="line2d_64">
    <path d="M 224.496 239.458135 
L 224.496 48.56 
" clip-path="url(#pe91ea03c8b)" style="fill: none; stroke: #178a4c; stroke-opacity: 0.85; stroke-width: 1.8; stroke-linecap: square"/>
   </g>
   <g id="line2d_65">
    <path d="M 53.6085 233.300131 
L 59.0335 233.300131 
L 64.4585 233.300131 
L 69.8835 233.300131 
L 75.3085 233.201602 
L 80.7335 233.300131 
L 86.1585 233.201602 
L 91.5835 233.201602 
L 97.0085 233.250866 
L 102.4335 233.201602 
L 107.8585 233.250866 
L 113.2835 233.250866 
L 118.7085 233.201602 
L 124.1335 233.250866 
L 129.5585 233.004546 
L 134.9835 233.152338 
L 140.4085 233.05381 
L 145.8335 233.201602 
L 151.2585 233.152338 
L 156.6835 233.300131 
L 162.1085 233.05381 
L 167.5335 233.201602 
L 172.9585 233.152338 
L 178.3835 233.201602 
L 183.8085 233.250866 
L 189.2335 233.201602 
L 194.6585 233.300131 
L 200.0835 233.152338 
L 205.5085 233.300131 
L 210.9335 233.201602 
L 216.3585 233.250866 
L 221.7835 233.300131 
L 227.2085 228.817103 
L 232.6335 225.811997 
L 238.0585 223.299531 
L 243.4835 220.787066 
L 248.9085 216.402567 
L 254.3335 211.131314 
L 259.7585 206.500495 
L 265.1835 199.258682 
L 270.6085 192.410983 
L 276.0335 182.213328 
L 281.4585 174.626667 
L 286.8835 162.458446 
L 292.3085 150.339494 
L 297.7335 141.127125 
L 303.1585 127.82583 
L 308.5835 118.909043 
L 314.0085 212.559971 
L 319.4335 214.432005 
L 324.8585 212.215123 
L 330.2835 210.195298 
L 335.7085 206.500495 
L 341.1335 199.209418 
L 346.5585 194.923447 
L 351.9835 183.691248 
L 357.4085 170.636275 
L 362.8335 160.093776 
L 368.2585 145.413095 
L 373.6835 126.594231 
L 379.1085 113.884107 
L 384.5335 95.262303 
L 389.9585 81.665434 
L 395.3835 69.300165 
" clip-path="url(#pe91ea03c8b)" style="fill: none; stroke: #d7e8fa; stroke-width: 1.4; stroke-linecap: square"/>
   </g>
   <g id="line2d_66">
    <path d="M 53.6085 231.970002 
L 59.0335 232.708962 
L 64.4585 232.216322 
L 69.8835 232.462642 
L 75.3085 232.659698 
L 80.7335 232.511906 
L 86.1585 232.56117 
L 91.5835 232.856754 
L 97.0085 232.708962 
L 102.4335 232.758226 
L 107.8585 232.56117 
L 113.2835 232.856754 
L 118.7085 233.05381 
L 124.1335 232.80749 
L 129.5585 232.462642 
L 134.9835 232.856754 
L 140.4085 232.708962 
L 145.8335 232.80749 
L 151.2585 233.05381 
L 156.6835 232.955282 
L 162.1085 233.152338 
L 167.5335 233.201602 
L 172.9585 233.05381 
L 178.3835 233.152338 
L 183.8085 233.152338 
L 189.2335 233.152338 
L 194.6585 233.250866 
L 200.0835 233.152338 
L 205.5085 233.300131 
L 210.9335 233.300131 
L 216.3585 233.201602 
L 221.7835 233.201602 
L 227.2085 225.467149 
L 232.6335 222.609835 
L 238.0585 219.555465 
L 243.4835 216.304039 
L 248.9085 210.490882 
L 254.3335 205.71227 
L 259.7585 201.032188 
L 265.1835 192.706565 
L 270.6085 188.075748 
L 276.0335 178.666316 
L 281.4585 167.532647 
L 286.8835 159.601135 
L 292.3085 150.142442 
L 297.7335 138.368336 
L 303.1585 128.515531 
L 308.5835 120.978131 
L 314.0085 213.298931 
L 319.4335 214.38274 
L 324.8585 213.003348 
L 330.2835 211.722483 
L 335.7085 207.091664 
L 341.1335 202.90422 
L 346.5585 199.899115 
L 351.9835 188.814706 
L 357.4085 177.828828 
L 362.8335 165.562081 
L 368.2585 150.635083 
L 373.6835 137.087472 
L 379.1085 121.470772 
L 384.5335 102.701173 
L 389.9585 87.133739 
L 395.3835 74.66994 
" clip-path="url(#pe91ea03c8b)" style="fill: none; stroke: #a6caec; stroke-width: 1.4; stroke-linecap: square"/>
   </g>
   <g id="line2d_67">
    <path d="M 53.6085 225.762733 
L 59.0335 227.142126 
L 64.4585 227.339182 
L 69.8835 227.092862 
L 75.3085 228.472255 
L 80.7335 229.26048 
L 86.1585 229.112687 
L 91.5835 229.556064 
L 97.0085 229.75312 
L 102.4335 230.442817 
L 107.8585 230.442817 
L 113.2835 231.083249 
L 118.7085 230.886193 
L 124.1335 231.378833 
L 129.5585 231.822209 
L 134.9835 231.723681 
L 140.4085 232.364114 
L 145.8335 232.364114 
L 151.2585 233.05381 
L 156.6835 232.955282 
L 162.1085 233.103074 
L 167.5335 233.103074 
L 172.9585 233.152338 
L 178.3835 233.201602 
L 183.8085 233.152338 
L 189.2335 233.300131 
L 194.6585 233.250866 
L 200.0835 233.103074 
L 205.5085 233.250866 
L 210.9335 233.250866 
L 216.3585 233.152338 
L 221.7835 233.201602 
L 227.2085 218.422392 
L 232.6335 214.185684 
L 238.0585 211.870276 
L 243.4835 208.421792 
L 248.9085 204.037294 
L 254.3335 199.554268 
L 259.7585 193.98743 
L 265.1835 187.583107 
L 270.6085 179.454539 
L 276.0335 172.60684 
L 281.4585 165.808406 
L 286.8835 158.369535 
L 292.3085 148.565988 
L 297.7335 141.324177 
L 303.1585 131.964013 
L 308.5835 124.180296 
L 314.0085 214.234949 
L 319.4335 214.333477 
L 324.8585 214.530533 
L 330.2835 213.101876 
L 335.7085 209.948977 
L 341.1335 205.860063 
L 346.5585 201.179979 
L 351.9835 193.642583 
L 357.4085 182.903021 
L 362.8335 173.641384 
L 368.2585 159.847452 
L 373.6835 148.171876 
L 379.1085 133.885306 
L 384.5335 119.303155 
L 389.9585 103.883515 
L 395.3835 91.074855 
" clip-path="url(#pe91ea03c8b)" style="fill: none; stroke: #74abda; stroke-width: 1.4; stroke-linecap: square"/>
   </g>
   <g id="line2d_68">
    <path d="M 53.6085 200.588812 
L 59.0335 207.436513 
L 64.4585 210.293826 
L 69.8835 211.870276 
L 75.3085 213.249668 
L 80.7335 215.71287 
L 86.1585 216.698151 
L 91.5835 218.422392 
L 97.0085 220.885594 
L 102.4335 222.659099 
L 107.8585 223.201003 
L 113.2835 224.728188 
L 118.7085 225.023773 
L 124.1335 226.797278 
L 129.5585 227.585503 
L 134.9835 228.718575 
L 140.4085 230.836929 
L 145.8335 231.970002 
L 151.2585 232.413378 
L 156.6835 232.167058 
L 162.1085 232.511906 
L 167.5335 232.856754 
L 172.9585 233.004546 
L 178.3835 233.004546 
L 183.8085 233.152338 
L 189.2335 232.80749 
L 194.6585 233.05381 
L 200.0835 233.201602 
L 205.5085 233.300131 
L 210.9335 233.300131 
L 216.3585 233.300131 
L 221.7835 233.250866 
L 227.2085 197.879288 
L 232.6335 194.578601 
L 238.0585 195.021977 
L 243.4835 191.474965 
L 248.9085 188.075748 
L 254.3335 187.977218 
L 259.7585 185.957392 
L 265.1835 180.636878 
L 270.6085 174.626667 
L 276.0335 169.749529 
L 281.4585 166.744416 
L 286.8835 157.975424 
L 292.3085 153.590924 
L 297.7335 151.423306 
L 303.1585 146.644695 
L 308.5835 145.117506 
L 314.0085 216.944471 
L 319.4335 218.76724 
L 324.8585 219.801785 
L 330.2835 218.570184 
L 335.7085 215.072437 
L 341.1335 213.495989 
L 346.5585 209.554866 
L 351.9835 203.692445 
L 357.4085 197.435912 
L 362.8335 190.637477 
L 368.2585 181.27731 
L 373.6835 173.198007 
L 379.1085 162.162864 
L 384.5335 153.246077 
L 389.9585 141.422707 
L 395.3835 130.436824 
" clip-path="url(#pe91ea03c8b)" style="fill: none; stroke: #3e8ac0; stroke-width: 1.4; stroke-linecap: square"/>
   </g>
   <g id="line2d_69">
    <path d="M 53.6085 155.216635 
L 59.0335 171.621557 
L 64.4585 178.321469 
L 69.8835 182.065533 
L 75.3085 184.873583 
L 80.7335 193.494792 
L 86.1585 195.514615 
L 91.5835 197.632968 
L 97.0085 204.579198 
L 102.4335 207.239455 
L 107.8585 210.58941 
L 113.2835 215.072437 
L 118.7085 216.550358 
L 124.1335 219.259881 
L 129.5585 221.57529 
L 134.9835 223.102475 
L 140.4085 229.359008 
L 145.8335 230.147232 
L 151.2585 230.935457 
L 156.6835 232.364114 
L 162.1085 232.06853 
L 167.5335 232.364114 
L 172.9585 232.610434 
L 178.3835 232.906018 
L 183.8085 232.708962 
L 189.2335 233.201602 
L 194.6585 233.004546 
L 200.0835 233.004546 
L 205.5085 233.05381 
L 210.9335 233.05381 
L 216.3585 233.05381 
L 221.7835 233.05381 
L 227.2085 160.931264 
L 232.6335 162.70477 
L 238.0585 162.754035 
L 243.4835 161.079059 
L 248.9085 163.345199 
L 254.3335 164.724593 
L 259.7585 165.315764 
L 265.1835 167.434117 
L 270.6085 167.631169 
L 276.0335 170.636275 
L 281.4585 173.542858 
L 286.8835 173.641384 
L 292.3085 173.198007 
L 297.7335 174.035495 
L 303.1585 178.46926 
L 308.5835 177.286922 
L 314.0085 224.777452 
L 319.4335 225.811997 
L 324.8585 226.600222 
L 330.2835 225.959789 
L 335.7085 226.304638 
L 341.1335 225.220829 
L 346.5585 224.580396 
L 351.9835 223.595116 
L 357.4085 220.245161 
L 362.8335 215.909925 
L 368.2585 212.461443 
L 373.6835 212.609236 
L 379.1085 206.648288 
L 384.5335 203.544653 
L 389.9585 196.105786 
L 395.3835 191.327174 
" clip-path="url(#pe91ea03c8b)" style="fill: none; stroke: #1e5f99; stroke-width: 1.4; stroke-linecap: square"/>
   </g>
   <g id="line2d_70">
    <path d="M 53.6085 116.987743 
L 59.0335 136.988942 
L 64.4585 149.945382 
L 69.8835 156.4975 
L 75.3085 163.295934 
L 80.7335 167.187792 
L 86.1585 175.611946 
L 91.5835 183.346398 
L 97.0085 187.681633 
L 102.4335 195.071238 
L 107.8585 197.928553 
L 113.2835 205.071838 
L 118.7085 209.160754 
L 124.1335 213.594517 
L 129.5585 216.501095 
L 134.9835 218.52092 
L 140.4085 226.846542 
L 145.8335 229.359008 
L 151.2585 229.900912 
L 156.6835 230.738401 
L 162.1085 231.526625 
L 167.5335 231.772945 
L 172.9585 232.364114 
L 178.3835 232.56117 
L 183.8085 232.856754 
L 189.2335 232.906018 
L 194.6585 232.906018 
L 200.0835 233.05381 
L 205.5085 233.201602 
L 210.9335 233.250866 
L 216.3585 233.300131 
L 221.7835 233.103074 
L 227.2085 132.850766 
L 232.6335 136.151454 
L 238.0585 142.407989 
L 243.4835 146.59543 
L 248.9085 149.896117 
L 254.3335 156.842346 
L 259.7585 162.8033 
L 265.1835 166.892211 
L 270.6085 173.247272 
L 276.0335 176.498699 
L 281.4585 183.198607 
L 286.8835 191.031589 
L 292.3085 193.691848 
L 297.7335 196.302842 
L 303.1585 201.721886 
L 308.5835 205.71227 
L 314.0085 230.787665 
L 319.4335 231.181777 
L 324.8585 231.772945 
L 330.2835 232.019266 
L 335.7085 232.31485 
L 341.1335 232.216322 
L 346.5585 232.413378 
L 351.9835 232.56117 
L 357.4085 232.610434 
L 362.8335 232.708962 
L 368.2585 232.462642 
L 373.6835 232.117794 
L 379.1085 232.06853 
L 384.5335 231.920738 
L 389.9585 231.625153 
L 395.3835 231.378833 
" clip-path="url(#pe91ea03c8b)" style="fill: none; stroke: #08306b; stroke-width: 1.4; stroke-linecap: square"/>
   </g>
   <g id="patch_21">
    <path d="M 53.6085 239.458135 
L 53.6085 48.56 
" style="fill: none; stroke: #000000; stroke-width: 0.8; stroke-linejoin: miter; stroke-linecap: square"/>
   </g>
   <g id="patch_22">
    <path d="M 53.6085 239.458135 
L 395.3835 239.458135 
" style="fill: none; stroke: #000000; stroke-width: 0.8; stroke-linejoin: miter; stroke-linecap: square"/>
   </g>
   <g id="text_61">
    <!-- Film -->
    <g style="fill: #1764d8" transform="translate(79.831312 42.246412) scale(0.12 -0.12)">
     <use xlink:href="#DejaVuSans-Bold-46"/>
     <use xlink:href="#DejaVuSans-Bold-69" transform="translate(68.310547 0)"/>
     <use xlink:href="#DejaVuSans-Bold-6c" transform="translate(102.587891 0)"/>
     <use xlink:href="#DejaVuSans-Bold-6d" transform="translate(136.865234 0)"/>
    </g>
   </g>
   <g id="text_62">
    <!-- Break -->
    <g style="fill: #3d4b5c" transform="translate(161.455375 42.246412) scale(0.12 -0.12)">
     <use xlink:href="#DejaVuSans-Bold-42"/>
     <use xlink:href="#DejaVuSans-Bold-72" transform="translate(76.220703 0)"/>
     <use xlink:href="#DejaVuSans-Bold-65" transform="translate(125.537109 0)"/>
     <use xlink:href="#DejaVuSans-Bold-61" transform="translate(193.359375 0)"/>
     <use xlink:href="#DejaVuSans-Bold-6b" transform="translate(260.839844 0)"/>
    </g>
   </g>
   <g id="text_63">
    <!-- Task -->
    <g style="fill: #d96b2b" transform="translate(252.965375 42.246412) scale(0.12 -0.12)">
     <use xlink:href="#DejaVuSans-Bold-54"/>
     <use xlink:href="#DejaVuSans-Bold-61" transform="translate(55.337891 0)"/>
     <use xlink:href="#DejaVuSans-Bold-73" transform="translate(122.818359 0)"/>
     <use xlink:href="#DejaVuSans-Bold-6b" transform="translate(182.339844 0)"/>
    </g>
   </g>
   <g id="text_64">
    <!-- Filler -->
    <g style="fill: #3d4b5c" transform="translate(337.398187 42.246412) scale(0.12 -0.12)">
     <use xlink:href="#DejaVuSans-Bold-46"/>
     <use xlink:href="#DejaVuSans-Bold-69" transform="translate(68.310547 0)"/>
     <use xlink:href="#DejaVuSans-Bold-6c" transform="translate(102.587891 0)"/>
     <use xlink:href="#DejaVuSans-Bold-6c" transform="translate(136.865234 0)"/>
     <use xlink:href="#DejaVuSans-Bold-65" transform="translate(171.142578 0)"/>
     <use xlink:href="#DejaVuSans-Bold-72" transform="translate(238.964844 0)"/>
    </g>
   </g>
   <g id="text_65">
    <!-- Film reminder -->
    <g style="fill: #178a4c" transform="translate(222.111 163.076916) rotate(-90) scale(0.12 -0.12)">
     <use xlink:href="#DejaVuSans-Oblique-46"/>
     <use xlink:href="#DejaVuSans-Oblique-69" transform="translate(57.519531 0)"/>
     <use xlink:href="#DejaVuSans-Oblique-6c" transform="translate(85.302734 0)"/>
     <use xlink:href="#DejaVuSans-Oblique-6d" transform="translate(113.085938 0)"/>
     <use xlink:href="#DejaVuSans-Oblique-20" transform="translate(210.498047 0)"/>
     <use xlink:href="#DejaVuSans-Oblique-72" transform="translate(242.285156 0)"/>
     <use xlink:href="#DejaVuSans-Oblique-65" transform="translate(283.398438 0)"/>
     <use xlink:href="#DejaVuSans-Oblique-6d" transform="translate(344.921875 0)"/>
     <use xlink:href="#DejaVuSans-Oblique-69" transform="translate(442.333984 0)"/>
     <use xlink:href="#DejaVuSans-Oblique-6e" transform="translate(470.117188 0)"/>
     <use xlink:href="#DejaVuSans-Oblique-64" transform="translate(533.496094 0)"/>
     <use xlink:href="#DejaVuSans-Oblique-65" transform="translate(596.972656 0)"/>
     <use xlink:href="#DejaVuSans-Oblique-72" transform="translate(658.496094 0)"/>
    </g>
   </g>
   <g id="text_66">
    <!-- C -->
    <g transform="translate(5.76 35.511449) scale(0.18 -0.18)">
     <defs>
      <path id="DejaVuSans-Bold-43" d="M 4288 256 
Q 3956 84 3597 -3 
Q 3238 -91 2847 -91 
Q 1681 -91 1000 561 
Q 319 1213 319 2328 
Q 319 3447 1000 4098 
Q 1681 4750 2847 4750 
Q 3238 4750 3597 4662 
Q 3956 4575 4288 4403 
L 4288 3438 
Q 3953 3666 3628 3772 
Q 3303 3878 2944 3878 
Q 2300 3878 1931 3465 
Q 1563 3053 1563 2328 
Q 1563 1606 1931 1193 
Q 2300 781 2944 781 
Q 3303 781 3628 887 
Q 3953 994 4288 1222 
L 4288 256 
z
" transform="scale(0.015625)"/>
     </defs>
     <use xlink:href="#DejaVuSans-Bold-43"/>
    </g>
   </g>
   <g id="text_67">
    <!-- Overall recall -->
    <g transform="translate(178.198656 16.56) scale(0.14 -0.14)">
     <defs>
      <path id="DejaVuSans-4f" d="M 2522 4238 
Q 1834 4238 1429 3725 
Q 1025 3213 1025 2328 
Q 1025 1447 1429 934 
Q 1834 422 2522 422 
Q 3209 422 3611 934 
Q 4013 1447 4013 2328 
Q 4013 3213 3611 3725 
Q 3209 4238 2522 4238 
z
M 2522 4750 
Q 3503 4750 4090 4092 
Q 4678 3434 4678 2328 
Q 4678 1225 4090 567 
Q 3503 -91 2522 -91 
Q 1538 -91 948 565 
Q 359 1222 359 2328 
Q 359 3434 948 4092 
Q 1538 4750 2522 4750 
z
" transform="scale(0.015625)"/>
      <path id="DejaVuSans-76" d="M 191 3500 
L 800 3500 
L 1894 563 
L 2988 3500 
L 3597 3500 
L 2284 0 
L 1503 0 
L 191 3500 
z
" transform="scale(0.015625)"/>
     </defs>
     <use xlink:href="#DejaVuSans-4f"/>
     <use xlink:href="#DejaVuSans-76" transform="translate(78.710938 0)"/>
     <use xlink:href="#DejaVuSans-65" transform="translate(137.890625 0)"/>
     <use xlink:href="#DejaVuSans-72" transform="translate(199.414062 0)"/>
     <use xlink:href="#DejaVuSans-61" transform="translate(240.527344 0)"/>
     <use xlink:href="#DejaVuSans-6c" transform="translate(301.806641 0)"/>
     <use xlink:href="#DejaVuSans-6c" transform="translate(329.589844 0)"/>
     <use xlink:href="#DejaVuSans-20" transform="translate(357.373047 0)"/>
     <use xlink:href="#DejaVuSans-72" transform="translate(389.160156 0)"/>
     <use xlink:href="#DejaVuSans-65" transform="translate(428.023438 0)"/>
     <use xlink:href="#DejaVuSans-63" transform="translate(489.546875 0)"/>
     <use xlink:href="#DejaVuSans-61" transform="translate(544.527344 0)"/>
     <use xlink:href="#DejaVuSans-6c" transform="translate(605.806641 0)"/>
     <use xlink:href="#DejaVuSans-6c" transform="translate(633.589844 0)"/>
    </g>
   </g>
  </g>
  <g id="axes_4">
   <g id="legend_1">
    <g id="patch_23">
     <path d="M 500.0335 170.504688 
L 600.510063 170.504688 
Q 602.510063 170.504688 602.510063 168.504688 
L 602.510063 55.56 
Q 602.510063 53.56 600.510063 53.56 
L 500.0335 53.56 
Q 498.0335 53.56 498.0335 55.56 
L 498.0335 168.504688 
Q 498.0335 170.504688 500.0335 170.504688 
z
" style="fill: #ffffff; opacity: 0.8; stroke: #cccccc; stroke-linejoin: miter"/>
    </g>
    <g id="text_68">
     <!-- Start-of-list context -->
     <g transform="translate(502.0335 65.158438) scale(0.1 -0.1)">
      <defs>
       <path id="DejaVuSans-53" d="M 3425 4513 
L 3425 3897 
Q 3066 4069 2747 4153 
Q 2428 4238 2131 4238 
Q 1616 4238 1336 4038 
Q 1056 3838 1056 3469 
Q 1056 3159 1242 3001 
Q 1428 2844 1947 2747 
L 2328 2669 
Q 3034 2534 3370 2195 
Q 3706 1856 3706 1288 
Q 3706 609 3251 259 
Q 2797 -91 1919 -91 
Q 1588 -91 1214 -16 
Q 841 59 441 206 
L 441 856 
Q 825 641 1194 531 
Q 1563 422 1919 422 
Q 2459 422 2753 634 
Q 3047 847 3047 1241 
Q 3047 1584 2836 1778 
Q 2625 1972 2144 2069 
L 1759 2144 
Q 1053 2284 737 2584 
Q 422 2884 422 3419 
Q 422 4038 858 4394 
Q 1294 4750 2059 4750 
Q 2388 4750 2728 4690 
Q 3069 4631 3425 4513 
z
" transform="scale(0.015625)"/>
       <path id="DejaVuSans-78" d="M 3513 3500 
L 2247 1797 
L 3578 0 
L 2900 0 
L 1881 1375 
L 863 0 
L 184 0 
L 1544 1831 
L 300 3500 
L 978 3500 
L 1906 2253 
L 2834 3500 
L 3513 3500 
z
" transform="scale(0.015625)"/>
      </defs>
      <use xlink:href="#DejaVuSans-53"/>
      <use xlink:href="#DejaVuSans-74" transform="translate(63.476562 0)"/>
      <use xlink:href="#DejaVuSans-61" transform="translate(102.685547 0)"/>
      <use xlink:href="#DejaVuSans-72" transform="translate(163.964844 0)"/>
      <use xlink:href="#DejaVuSans-74" transform="translate(205.078125 0)"/>
      <use xlink:href="#DejaVuSans-2d" transform="translate(244.287109 0)"/>
      <use xlink:href="#DejaVuSans-6f" transform="translate(282.246094 0)"/>
      <use xlink:href="#DejaVuSans-66" transform="translate(343.427734 0)"/>
      <use xlink:href="#DejaVuSans-2d" transform="translate(373.132812 0)"/>
      <use xlink:href="#DejaVuSans-6c" transform="translate(409.216797 0)"/>
      <use xlink:href="#DejaVuSans-69" transform="translate(437 0)"/>
      <use xlink:href="#DejaVuSans-73" transform="translate(464.783203 0)"/>
      <use xlink:href="#DejaVuSans-74" transform="translate(516.882812 0)"/>
      <use xlink:href="#DejaVuSans-20" transform="translate(556.091797 0)"/>
      <use xlink:href="#DejaVuSans-63" transform="translate(587.878906 0)"/>
      <use xlink:href="#DejaVuSans-6f" transform="translate(642.859375 0)"/>
      <use xlink:href="#DejaVuSans-6e" transform="translate(704.041016 0)"/>
      <use xlink:href="#DejaVuSans-74" transform="translate(767.419922 0)"/>
      <use xlink:href="#DejaVuSans-65" transform="translate(806.628906 0)"/>
      <use xlink:href="#DejaVuSans-78" transform="translate(866.402344 0)"/>
      <use xlink:href="#DejaVuSans-74" transform="translate(925.582031 0)"/>
     </g>
     <!-- reinstatement -->
     <g transform="translate(514.953031 76.35625) scale(0.1 -0.1)">
      <use xlink:href="#DejaVuSans-72"/>
      <use xlink:href="#DejaVuSans-65" transform="translate(38.863281 0)"/>
      <use xlink:href="#DejaVuSans-69" transform="translate(100.386719 0)"/>
      <use xlink:href="#DejaVuSans-6e" transform="translate(128.169922 0)"/>
      <use xlink:href="#DejaVuSans-73" transform="translate(191.548828 0)"/>
      <use xlink:href="#DejaVuSans-74" transform="translate(243.648438 0)"/>
      <use xlink:href="#DejaVuSans-61" transform="translate(282.857422 0)"/>
      <use xlink:href="#DejaVuSans-74" transform="translate(344.136719 0)"/>
      <use xlink:href="#DejaVuSans-65" transform="translate(383.345703 0)"/>
      <use xlink:href="#DejaVuSans-6d" transform="translate(444.869141 0)"/>
      <use xlink:href="#DejaVuSans-65" transform="translate(542.28125 0)"/>
      <use xlink:href="#DejaVuSans-6e" transform="translate(603.804688 0)"/>
      <use xlink:href="#DejaVuSans-74" transform="translate(667.183594 0)"/>
     </g>
    </g>
    <g id="line2d_71">
     <path style="fill: none; stroke: #d7e8fa; stroke-width: 1.4; stroke-linecap: square"/>
    </g>
    <g id="text_69">
     <!-- 0.00 -->
     <g transform="translate(553.138969 91.034375) scale(0.1 -0.1)">
      <use xlink:href="#DejaVuSans-30"/>
      <use xlink:href="#DejaVuSans-2e" transform="translate(63.623047 0)"/>
      <use xlink:href="#DejaVuSans-30" transform="translate(95.410156 0)"/>
      <use xlink:href="#DejaVuSans-30" transform="translate(159.033203 0)"/>
     </g>
    </g>
    <g id="line2d_72">
     <path style="fill: none; stroke: #a6caec; stroke-width: 1.4; stroke-linecap: square"/>
    </g>
    <g id="text_70">
     <!-- 0.25 -->
     <g transform="translate(553.138969 105.7125) scale(0.1 -0.1)">
      <use xlink:href="#DejaVuSans-30"/>
      <use xlink:href="#DejaVuSans-2e" transform="translate(63.623047 0)"/>
      <use xlink:href="#DejaVuSans-32" transform="translate(95.410156 0)"/>
      <use xlink:href="#DejaVuSans-35" transform="translate(159.033203 0)"/>
     </g>
    </g>
    <g id="line2d_73">
     <path style="fill: none; stroke: #74abda; stroke-width: 1.4; stroke-linecap: square"/>
    </g>
    <g id="text_71">
     <!-- 0.50 -->
     <g transform="translate(553.138969 120.390625) scale(0.1 -0.1)">
      <use xlink:href="#DejaVuSans-30"/>
      <use xlink:href="#DejaVuSans-2e" transform="translate(63.623047 0)"/>
      <use xlink:href="#DejaVuSans-35" transform="translate(95.410156 0)"/>
      <use xlink:href="#DejaVuSans-30" transform="translate(159.033203 0)"/>
     </g>
    </g>
    <g id="line2d_74">
     <path style="fill: none; stroke: #3e8ac0; stroke-width: 1.4; stroke-linecap: square"/>
    </g>
    <g id="text_72">
     <!-- 0.75 -->
     <g transform="translate(553.138969 135.06875) scale(0.1 -0.1)">
      <use xlink:href="#DejaVuSans-30"/>
      <use xlink:href="#DejaVuSans-2e" transform="translate(63.623047 0)"/>
      <use xlink:href="#DejaVuSans-37" transform="translate(95.410156 0)"/>
      <use xlink:href="#DejaVuSans-35" transform="translate(159.033203 0)"/>
     </g>
    </g>
    <g id="line2d_75">
     <path style="fill: none; stroke: #1e5f99; stroke-width: 1.4; stroke-linecap: square"/>
    </g>
    <g id="text_73">
     <!-- 1.00 -->
     <g transform="translate(553.138969 149.746875) scale(0.1 -0.1)">
      <use xlink:href="#DejaVuSans-31"/>
      <use xlink:href="#DejaVuSans-2e" transform="translate(63.623047 0)"/>
      <use xlink:href="#DejaVuSans-30" transform="translate(95.410156 0)"/>
      <use xlink:href="#DejaVuSans-30" transform="translate(159.033203 0)"/>
     </g>
    </g>
    <g id="line2d_76">
     <path style="fill: none; stroke: #08306b; stroke-width: 1.4; stroke-linecap: square"/>
    </g>
    <g id="text_74">
     <!-- 1.25 -->
     <g transform="translate(553.138969 164.425) scale(0.1 -0.1)">
      <use xlink:href="#DejaVuSans-31"/>
      <use xlink:href="#DejaVuSans-2e" transform="translate(63.623047 0)"/>
      <use xlink:href="#DejaVuSans-32" transform="translate(95.410156 0)"/>
      <use xlink:href="#DejaVuSans-35" transform="translate(159.033203 0)"/>
     </g>
    </g>
   </g>
  </g>
 </g>
 <defs>
  <clipPath id="pb287ad051e">
   <rect x="-166.104" y="-259.501865" width="341.775" height="200.443042"/>
  </clipPath>
  <clipPath id="p167ff2e88c">
   <rect x="273.321" y="-259.501865" width="341.775" height="200.443042"/>
  </clipPath>
  <clipPath id="pe91ea03c8b">
   <rect x="53.6085" y="48.56" width="341.775" height="190.898135"/>
  </clipPath>
 </defs>
</svg>
