<svg xmlns="http://www.w3.org/2000/svg" viewBox="0 0 1504 410" width="1504" height="410" font-family="Arial, Helvetica, sans-serif">
<rect x="0" y="0" width="1504" height="410" fill="white"/>
<text x="752" y="60" font-size="34" font-weight="700" fill="#111111" text-anchor="middle">Proposed test of selective interference in episodic memory</text>

<line x1="65" y1="292" x2="1399" y2="292" stroke="#3D4B5C" stroke-width="4"/>
<path d="M1399 283 L1414 292 L1399 301 Z" fill="#3D4B5C"/>

<rect x="34" y="116" width="125" height="54" rx="12" fill="#EAF2FF" stroke="#1764D8" stroke-width="3"/>
<text x="96.5" y="150" font-size="21" font-weight="700" fill="#111111" text-anchor="middle">Category A</text>
<line x1="165" y1="143" x2="184" y2="143" stroke="#3D4B5C" stroke-width="2.5"/>
<path d="M184 139 L193 143 L184 147 Z" fill="#3D4B5C"/>
<rect x="195" y="116" width="125" height="54" rx="12" fill="#F1EBFA" stroke="#7651A6" stroke-width="3"/>
<text x="257.5" y="150" font-size="21" font-weight="700" fill="#111111" text-anchor="middle">Category B</text>
<rect x="34" y="178" width="125" height="54" rx="12" fill="#F1EBFA" stroke="#7651A6" stroke-width="3"/>
<text x="96.5" y="212" font-size="21" font-weight="700" fill="#111111" text-anchor="middle">Category B</text>
<line x1="165" y1="205" x2="184" y2="205" stroke="#3D4B5C" stroke-width="2.5"/>
<path d="M184 201 L193 205 L184 209 Z" fill="#3D4B5C"/>
<rect x="195" y="178" width="125" height="54" rx="12" fill="#EAF2FF" stroke="#1764D8" stroke-width="3"/>
<text x="257.5" y="212" font-size="21" font-weight="700" fill="#111111" text-anchor="middle">Category A</text>

<rect x="337" y="146" width="170" height="64" rx="12" fill="#F2F4F6" stroke="#3D4B5C" stroke-width="3"/>
<text x="422" y="186" font-size="21" font-weight="700" fill="#111111" text-anchor="middle">Initial delay</text>

<rect x="527" y="116" width="220" height="54" rx="12" fill="#FAFBFC" stroke="#3D4B5C" stroke-width="3"/>
<text x="637" y="150" font-size="21" font-weight="700" fill="#111111" text-anchor="middle">Control cue</text>
<rect x="527" y="178" width="220" height="54" rx="12" fill="#EAF8F0" stroke="#178A4C" stroke-width="3"/>
<text x="637" y="212" font-size="21" font-weight="700" fill="#111111" text-anchor="middle">Category A reminder</text>

<rect x="757" y="116" width="220" height="54" rx="12" fill="#FFF0E6" stroke="#D96B2B" stroke-width="3"/>
<text x="867" y="151" font-size="21" font-weight="700" fill="#111111" text-anchor="middle">Far from Category A</text>
<rect x="757" y="178" width="220" height="54" rx="12" fill="#FFF0E6" stroke="#D96B2B" stroke-width="3"/>
<text x="867" y="213" font-size="21" font-weight="700" fill="#111111" text-anchor="middle">Near Category A</text>

<rect x="997" y="146" width="200" height="64" rx="12" fill="#F2F4F6" stroke="#3D4B5C" stroke-width="3"/>
<text x="1097" y="186" font-size="21" font-weight="700" fill="#111111" text-anchor="middle">Retention interval</text>

<rect x="1227" y="116" width="200" height="54" rx="12" fill="#F1EBFA" stroke="#7651A6" stroke-width="3"/>
<text x="1327" y="151" font-size="21" font-weight="700" fill="#111111" text-anchor="middle">Recall Category B</text>
<rect x="1227" y="178" width="200" height="54" rx="12" fill="#EAF2FF" stroke="#1764D8" stroke-width="3"/>
<text x="1327" y="213" font-size="21" font-weight="700" fill="#111111" text-anchor="middle">Recall Category A</text>

<text x="177" y="358" font-size="24" font-weight="700" fill="#3D4B5C" text-anchor="middle">Initial study list</text>
<text x="422" y="358" font-size="24" font-weight="700" fill="#3D4B5C" text-anchor="middle">Delay</text>
<text x="637" y="358" font-size="24" font-weight="700" fill="#3D4B5C" text-anchor="middle">Reminder</text>
<text x="867" y="358" font-size="24" font-weight="700" fill="#3D4B5C" text-anchor="middle">Additional study list</text>
<text x="1097" y="358" font-size="24" font-weight="700" fill="#3D4B5C" text-anchor="middle">Delay</text>
<text x="1327" y="358" font-size="24" font-weight="700" fill="#3D4B5C" text-anchor="middle">Externalized recall</text>
</svg>
